<?xml version="1.0" encoding="UTF-8"?>
<svg id="_图层_2" data-name="图层 2" xmlns="http://www.w3.org/2000/svg" xmlns:xlink="http://www.w3.org/1999/xlink" viewBox="0 0 519.79 166">
  <defs>
    <style>
      .cls-1, .cls-2, .cls-3, .cls-4, .cls-5, .cls-6, .cls-7, .cls-8, .cls-9, .cls-10, .cls-11, .cls-12, .cls-13, .cls-14, .cls-15, .cls-16, .cls-17, .cls-18, .cls-19, .cls-20, .cls-21, .cls-22, .cls-23, .cls-24, .cls-25, .cls-26 {
        fill: none;
      }

      .cls-2 {
        stroke-dasharray: 2.88 1.92;
      }

      .cls-2, .cls-3, .cls-4, .cls-5, .cls-7, .cls-8, .cls-9, .cls-10, .cls-11, .cls-13, .cls-15, .cls-16, .cls-17, .cls-20, .cls-21, .cls-22, .cls-23, .cls-24, .cls-25, .cls-26 {
        stroke-linejoin: round;
      }

      .cls-2, .cls-3, .cls-7, .cls-8, .cls-9, .cls-10, .cls-11, .cls-13, .cls-15, .cls-16, .cls-17, .cls-19, .cls-20, .cls-21, .cls-22, .cls-24, .cls-25, .cls-26 {
        stroke-linecap: round;
      }

      .cls-2, .cls-9, .cls-10, .cls-11, .cls-13, .cls-20, .cls-21 {
        stroke: #f5ae49;
      }

      .cls-27 {
        font-size: 9px;
      }

      .cls-27, .cls-28, .cls-29, .cls-30, .cls-31, .cls-32, .cls-33 {
        fill: #231815;
      }

      .cls-27, .cls-28, .cls-29, .cls-30, .cls-34 {
        font-family: Gilroy-Regular, Gilroy;
      }

      .cls-28, .cls-34 {
        font-size: 8px;
      }

      .cls-29 {
        font-size: 7px;
      }

      .cls-30 {
        font-size: 6px;
      }

      .cls-3, .cls-7, .cls-15, .cls-16, .cls-17, .cls-24, .cls-26 {
        stroke: #898989;
      }

      .cls-4, .cls-5, .cls-23 {
        stroke: #b0b0b0;
        stroke-linecap: square;
      }

      .cls-4, .cls-12, .cls-14, .cls-18, .cls-19 {
        stroke-width: .5px;
      }

      .cls-5, .cls-23 {
        stroke-width: .25px;
      }

      .cls-35 {
        fill: #b43238;
        opacity: .1;
      }

      .cls-31 {
        font-family: Gilroy-SemiBold, Gilroy;
        font-size: 10px;
        font-weight: 600;
      }

      .cls-6 {
        stroke-width: .75px;
      }

      .cls-6, .cls-12, .cls-14, .cls-18, .cls-19 {
        stroke-miterlimit: 10;
      }

      .cls-6, .cls-19 {
        stroke: #231815;
      }

      .cls-36, .cls-33 {
        font-family: Gilroy-RegularItalic, Gilroy;
        font-size: 12px;
        font-style: italic;
      }

      .cls-7 {
        stroke-dasharray: 2.89 1.93;
      }

      .cls-8 {
        stroke: #c9caca;
      }

      .cls-8, .cls-25 {
        stroke-width: 3px;
      }

      .cls-9, .cls-17 {
        stroke-dasharray: 3 2;
      }

      .cls-10 {
        stroke-dasharray: 2.94 1.96;
      }

      .cls-11 {
        stroke-dasharray: 2.97 1.98;
      }

      .cls-12 {
        stroke: #187c3a;
      }

      .cls-12, .cls-14, .cls-18 {
        opacity: .1;
      }

      .cls-13 {
        stroke-dasharray: 3.2 2.13;
      }

      .cls-14 {
        stroke: #e7211a;
      }

      .cls-37 {
        clip-path: url(#clippath-17);
      }

      .cls-38 {
        clip-path: url(#clippath-19);
      }

      .cls-39 {
        clip-path: url(#clippath-11);
      }

      .cls-40 {
        clip-path: url(#clippath-16);
      }

      .cls-41 {
        clip-path: url(#clippath-18);
      }

      .cls-42 {
        clip-path: url(#clippath-10);
      }

      .cls-43 {
        clip-path: url(#clippath-15);
      }

      .cls-44 {
        clip-path: url(#clippath-13);
      }

      .cls-45 {
        clip-path: url(#clippath-14);
      }

      .cls-46 {
        clip-path: url(#clippath-12);
      }

      .cls-47 {
        clip-path: url(#clippath-50);
      }

      .cls-48 {
        clip-path: url(#clippath-52);
      }

      .cls-49 {
        clip-path: url(#clippath-51);
      }

      .cls-50 {
        clip-path: url(#clippath-31);
      }

      .cls-51 {
        clip-path: url(#clippath-32);
      }

      .cls-52 {
        clip-path: url(#clippath-33);
      }

      .cls-53 {
        clip-path: url(#clippath-34);
      }

      .cls-54 {
        clip-path: url(#clippath-35);
      }

      .cls-55 {
        clip-path: url(#clippath-39);
      }

      .cls-56 {
        clip-path: url(#clippath-30);
      }

      .cls-57 {
        clip-path: url(#clippath-36);
      }

      .cls-58 {
        clip-path: url(#clippath-37);
      }

      .cls-59 {
        clip-path: url(#clippath-38);
      }

      .cls-60 {
        clip-path: url(#clippath-27);
      }

      .cls-61 {
        clip-path: url(#clippath-29);
      }

      .cls-62 {
        clip-path: url(#clippath-26);
      }

      .cls-63 {
        clip-path: url(#clippath-28);
      }

      .cls-64 {
        clip-path: url(#clippath-20);
      }

      .cls-65 {
        clip-path: url(#clippath-21);
      }

      .cls-66 {
        clip-path: url(#clippath-22);
      }

      .cls-67 {
        clip-path: url(#clippath-23);
      }

      .cls-68 {
        clip-path: url(#clippath-24);
      }

      .cls-69 {
        clip-path: url(#clippath-25);
      }

      .cls-70 {
        clip-path: url(#clippath-41);
      }

      .cls-71 {
        clip-path: url(#clippath-42);
      }

      .cls-72 {
        clip-path: url(#clippath-43);
      }

      .cls-73 {
        clip-path: url(#clippath-44);
      }

      .cls-74 {
        clip-path: url(#clippath-45);
      }

      .cls-75 {
        clip-path: url(#clippath-49);
      }

      .cls-76 {
        clip-path: url(#clippath-40);
      }

      .cls-77 {
        clip-path: url(#clippath-46);
      }

      .cls-78 {
        clip-path: url(#clippath-47);
      }

      .cls-79 {
        clip-path: url(#clippath-48);
      }

      .cls-80 {
        clip-path: url(#clippath-1);
      }

      .cls-81 {
        clip-path: url(#clippath-3);
      }

      .cls-82 {
        clip-path: url(#clippath-4);
      }

      .cls-83 {
        clip-path: url(#clippath-2);
      }

      .cls-84 {
        clip-path: url(#clippath-7);
      }

      .cls-85 {
        clip-path: url(#clippath-6);
      }

      .cls-86 {
        clip-path: url(#clippath-9);
      }

      .cls-87 {
        clip-path: url(#clippath-8);
      }

      .cls-88 {
        clip-path: url(#clippath-5);
      }

      .cls-89 {
        letter-spacing: 0em;
      }

      .cls-90 {
        letter-spacing: 0em;
      }

      .cls-15 {
        stroke-dasharray: 3.02 2.01;
      }

      .cls-91 {
        letter-spacing: 0em;
      }

      .cls-16 {
        stroke-dasharray: 2.99 2;
      }

      .cls-92 {
        letter-spacing: 0em;
      }

      .cls-93 {
        letter-spacing: 0em;
      }

      .cls-94 {
        letter-spacing: 0em;
      }

      .cls-95 {
        letter-spacing: 0em;
      }

      .cls-96 {
        letter-spacing: 0em;
      }

      .cls-18 {
        stroke: #18499e;
      }

      .cls-21 {
        stroke-dasharray: 3.11 2.07;
      }

      .cls-22 {
        stroke: #b43238;
        stroke-width: 1.5px;
      }

      .cls-23 {
        opacity: .5;
      }

      .cls-97 {
        letter-spacing: -.09em;
      }

      .cls-98 {
        letter-spacing: -.09em;
      }

      .cls-99 {
        letter-spacing: -.08em;
      }

      .cls-100 {
        letter-spacing: -.07em;
      }

      .cls-101 {
        letter-spacing: -.03em;
      }

      .cls-102 {
        letter-spacing: -.03em;
      }

      .cls-103 {
        letter-spacing: -.02em;
      }

      .cls-104 {
        letter-spacing: -.02em;
      }

      .cls-105 {
        letter-spacing: -.02em;
      }

      .cls-106 {
        letter-spacing: -.02em;
      }

      .cls-107 {
        letter-spacing: -.02em;
      }

      .cls-108 {
        letter-spacing: -.02em;
      }

      .cls-109 {
        letter-spacing: -.02em;
      }

      .cls-110 {
        letter-spacing: -.02em;
      }

      .cls-111 {
        letter-spacing: -.02em;
      }

      .cls-112 {
        letter-spacing: -.01em;
      }

      .cls-113 {
        letter-spacing: -.01em;
      }

      .cls-114 {
        letter-spacing: -.02em;
      }

      .cls-115 {
        letter-spacing: -.05em;
      }

      .cls-116 {
        letter-spacing: -.04em;
      }

      .cls-117 {
        letter-spacing: -.03em;
      }

      .cls-118 {
        letter-spacing: -.03em;
      }

      .cls-119 {
        letter-spacing: -.03em;
      }

      .cls-120 {
        letter-spacing: -.03em;
      }

      .cls-121 {
        letter-spacing: -.03em;
      }

      .cls-122 {
        letter-spacing: 0em;
      }

      .cls-123 {
        letter-spacing: 0em;
      }

      .cls-124 {
        letter-spacing: 0em;
      }

      .cls-125 {
        letter-spacing: 0em;
      }

      .cls-126 {
        letter-spacing: 0em;
      }

      .cls-127 {
        letter-spacing: 0em;
      }

      .cls-128 {
        letter-spacing: 0em;
      }

      .cls-129 {
        letter-spacing: -.01em;
      }

      .cls-130 {
        letter-spacing: 0em;
      }

      .cls-131 {
        letter-spacing: 0em;
      }

      .cls-132 {
        letter-spacing: 0em;
      }

      .cls-24 {
        stroke-dasharray: 2.93 1.95;
      }

      .cls-25 {
        stroke: #9fa0a0;
      }

      .cls-133 {
        clip-path: url(#clippath);
      }

      .cls-26 {
        stroke-dasharray: 3.17 2.12;
      }

      .cls-134 {
        letter-spacing: 0em;
      }
    </style>
    <clipPath id="clippath">
      <path class="cls-5" d="M332.13,85.34c0-8.38-1.65-16.67-4.85-24.41-3.21-7.74-7.9-14.77-13.83-20.69-5.92-5.92-12.95-10.62-20.69-13.83-7.74-3.21-16.03-4.85-24.41-4.85s-16.67,1.65-24.41,4.85c-7.74,3.21-14.77,7.9-20.69,13.83-5.92,5.92-10.62,12.95-13.83,20.69-3.21,7.74-4.85,16.03-4.85,24.41s1.65,16.67,4.85,24.41c3.21,7.74,7.9,14.77,13.83,20.69s12.95,10.62,20.69,13.83c7.74,3.21,16.03,4.85,24.41,4.85s16.67-1.65,24.41-4.85c7.74-3.21,14.77-7.9,20.69-13.83,5.92-5.92,10.62-12.95,13.83-20.69,3.21-7.74,4.85-16.03,4.85-24.41"/>
    </clipPath>
    <clipPath id="clippath-1">
      <path class="cls-5" d="M332.13,85.34c0-8.38-1.65-16.67-4.85-24.41-3.21-7.74-7.9-14.77-13.83-20.69-5.92-5.92-12.95-10.62-20.69-13.83-7.74-3.21-16.03-4.85-24.41-4.85s-16.67,1.65-24.41,4.85c-7.74,3.21-14.77,7.9-20.69,13.83-5.92,5.92-10.62,12.95-13.83,20.69-3.21,7.74-4.85,16.03-4.85,24.41s1.65,16.67,4.85,24.41c3.21,7.74,7.9,14.77,13.83,20.69s12.95,10.62,20.69,13.83c7.74,3.21,16.03,4.85,24.41,4.85s16.67-1.65,24.41-4.85c7.74-3.21,14.77-7.9,20.69-13.83,5.92-5.92,10.62-12.95,13.83-20.69,3.21-7.74,4.85-16.03,4.85-24.41"/>
    </clipPath>
    <clipPath id="clippath-2">
      <path class="cls-5" d="M332.13,85.34c0-8.38-1.65-16.67-4.85-24.41-3.21-7.74-7.9-14.77-13.83-20.69-5.92-5.92-12.95-10.62-20.69-13.83-7.74-3.21-16.03-4.85-24.41-4.85s-16.67,1.65-24.41,4.85c-7.74,3.21-14.77,7.9-20.69,13.83-5.92,5.92-10.62,12.95-13.83,20.69-3.21,7.74-4.85,16.03-4.85,24.41s1.65,16.67,4.85,24.41c3.21,7.74,7.9,14.77,13.83,20.69s12.95,10.62,20.69,13.83c7.74,3.21,16.03,4.85,24.41,4.85s16.67-1.65,24.41-4.85c7.74-3.21,14.77-7.9,20.69-13.83,5.92-5.92,10.62-12.95,13.83-20.69,3.21-7.74,4.85-16.03,4.85-24.41"/>
    </clipPath>
    <clipPath id="clippath-3">
      <path class="cls-5" d="M332.13,85.34c0-8.38-1.65-16.67-4.85-24.41-3.21-7.74-7.9-14.77-13.83-20.69-5.92-5.92-12.95-10.62-20.69-13.83-7.74-3.21-16.03-4.85-24.41-4.85s-16.67,1.65-24.41,4.85c-7.74,3.21-14.77,7.9-20.69,13.83-5.92,5.92-10.62,12.95-13.83,20.69-3.21,7.74-4.85,16.03-4.85,24.41s1.65,16.67,4.85,24.41c3.21,7.74,7.9,14.77,13.83,20.69s12.95,10.62,20.69,13.83c7.74,3.21,16.03,4.85,24.41,4.85s16.67-1.65,24.41-4.85c7.74-3.21,14.77-7.9,20.69-13.83,5.92-5.92,10.62-12.95,13.83-20.69,3.21-7.74,4.85-16.03,4.85-24.41"/>
    </clipPath>
    <clipPath id="clippath-4">
      <path class="cls-5" d="M332.13,85.34c0-8.38-1.65-16.67-4.85-24.41-3.21-7.74-7.9-14.77-13.83-20.69-5.92-5.92-12.95-10.62-20.69-13.83-7.74-3.21-16.03-4.85-24.41-4.85s-16.67,1.65-24.41,4.85c-7.74,3.21-14.77,7.9-20.69,13.83-5.92,5.92-10.62,12.95-13.83,20.69-3.21,7.74-4.85,16.03-4.85,24.41s1.65,16.67,4.85,24.41c3.21,7.74,7.9,14.77,13.83,20.69s12.95,10.62,20.69,13.83c7.74,3.21,16.03,4.85,24.41,4.85s16.67-1.65,24.41-4.85c7.74-3.21,14.77-7.9,20.69-13.83,5.92-5.92,10.62-12.95,13.83-20.69,3.21-7.74,4.85-16.03,4.85-24.41"/>
    </clipPath>
    <clipPath id="clippath-5">
      <path class="cls-5" d="M332.13,85.34c0-8.38-1.65-16.67-4.85-24.41-3.21-7.74-7.9-14.77-13.83-20.69-5.92-5.92-12.95-10.62-20.69-13.83-7.74-3.21-16.03-4.85-24.41-4.85s-16.67,1.65-24.41,4.85c-7.74,3.21-14.77,7.9-20.69,13.83-5.92,5.92-10.62,12.95-13.83,20.69-3.21,7.74-4.85,16.03-4.85,24.41s1.65,16.67,4.85,24.41c3.21,7.74,7.9,14.77,13.83,20.69s12.95,10.62,20.69,13.83c7.74,3.21,16.03,4.85,24.41,4.85s16.67-1.65,24.41-4.85c7.74-3.21,14.77-7.9,20.69-13.83,5.92-5.92,10.62-12.95,13.83-20.69,3.21-7.74,4.85-16.03,4.85-24.41"/>
    </clipPath>
    <clipPath id="clippath-6">
      <path class="cls-5" d="M332.13,85.34c0-8.38-1.65-16.67-4.85-24.41-3.21-7.74-7.9-14.77-13.83-20.69-5.92-5.92-12.95-10.62-20.69-13.83-7.74-3.21-16.03-4.85-24.41-4.85s-16.67,1.65-24.41,4.85c-7.74,3.21-14.77,7.9-20.69,13.83-5.92,5.92-10.62,12.95-13.83,20.69-3.21,7.74-4.85,16.03-4.85,24.41s1.65,16.67,4.85,24.41c3.21,7.74,7.9,14.77,13.83,20.69s12.95,10.62,20.69,13.83c7.74,3.21,16.03,4.85,24.41,4.85s16.67-1.65,24.41-4.85c7.74-3.21,14.77-7.9,20.69-13.83,5.92-5.92,10.62-12.95,13.83-20.69,3.21-7.74,4.85-16.03,4.85-24.41"/>
    </clipPath>
    <clipPath id="clippath-7">
      <path class="cls-5" d="M332.13,85.34c0-8.38-1.65-16.67-4.85-24.41-3.21-7.74-7.9-14.77-13.83-20.69-5.92-5.92-12.95-10.62-20.69-13.83-7.74-3.21-16.03-4.85-24.41-4.85s-16.67,1.65-24.41,4.85c-7.74,3.21-14.77,7.9-20.69,13.83-5.92,5.92-10.62,12.95-13.83,20.69-3.21,7.74-4.85,16.03-4.85,24.41s1.65,16.67,4.85,24.41c3.21,7.74,7.9,14.77,13.83,20.69s12.95,10.62,20.69,13.83c7.74,3.21,16.03,4.85,24.41,4.85s16.67-1.65,24.41-4.85c7.74-3.21,14.77-7.9,20.69-13.83,5.92-5.92,10.62-12.95,13.83-20.69,3.21-7.74,4.85-16.03,4.85-24.41"/>
    </clipPath>
    <clipPath id="clippath-8">
      <path class="cls-5" d="M332.13,85.34c0-8.38-1.65-16.67-4.85-24.41-3.21-7.74-7.9-14.77-13.83-20.69-5.92-5.92-12.95-10.62-20.69-13.83-7.74-3.21-16.03-4.85-24.41-4.85s-16.67,1.65-24.41,4.85c-7.74,3.21-14.77,7.9-20.69,13.83-5.92,5.92-10.62,12.95-13.83,20.69-3.21,7.74-4.85,16.03-4.85,24.41s1.65,16.67,4.85,24.41c3.21,7.74,7.9,14.77,13.83,20.69s12.95,10.62,20.69,13.83c7.74,3.21,16.03,4.85,24.41,4.85s16.67-1.65,24.41-4.85c7.74-3.21,14.77-7.9,20.69-13.83,5.92-5.92,10.62-12.95,13.83-20.69,3.21-7.74,4.85-16.03,4.85-24.41"/>
    </clipPath>
    <clipPath id="clippath-9">
      <path class="cls-5" d="M332.13,85.34c0-8.38-1.65-16.67-4.85-24.41-3.21-7.74-7.9-14.77-13.83-20.69-5.92-5.92-12.95-10.62-20.69-13.83-7.74-3.21-16.03-4.85-24.41-4.85s-16.67,1.65-24.41,4.85c-7.74,3.21-14.77,7.9-20.69,13.83-5.92,5.92-10.62,12.95-13.83,20.69-3.21,7.74-4.85,16.03-4.85,24.41s1.65,16.67,4.85,24.41c3.21,7.74,7.9,14.77,13.83,20.69s12.95,10.62,20.69,13.83c7.74,3.21,16.03,4.85,24.41,4.85s16.67-1.65,24.41-4.85c7.74-3.21,14.77-7.9,20.69-13.83,5.92-5.92,10.62-12.95,13.83-20.69,3.21-7.74,4.85-16.03,4.85-24.41"/>
    </clipPath>
    <clipPath id="clippath-10">
      <path class="cls-5" d="M332.13,85.34c0-8.38-1.65-16.67-4.85-24.41-3.21-7.74-7.9-14.77-13.83-20.69-5.92-5.92-12.95-10.62-20.69-13.83-7.74-3.21-16.03-4.85-24.41-4.85s-16.67,1.65-24.41,4.85c-7.74,3.21-14.77,7.9-20.69,13.83-5.92,5.92-10.62,12.95-13.83,20.69-3.21,7.74-4.85,16.03-4.85,24.41s1.65,16.67,4.85,24.41c3.21,7.74,7.9,14.77,13.83,20.69s12.95,10.62,20.69,13.83c7.74,3.21,16.03,4.85,24.41,4.85s16.67-1.65,24.41-4.85c7.74-3.21,14.77-7.9,20.69-13.83,5.92-5.92,10.62-12.95,13.83-20.69,3.21-7.74,4.85-16.03,4.85-24.41"/>
    </clipPath>
    <clipPath id="clippath-11">
      <path class="cls-5" d="M332.13,85.34c0-8.38-1.65-16.67-4.85-24.41-3.21-7.74-7.9-14.77-13.83-20.69-5.92-5.92-12.95-10.62-20.69-13.83-7.74-3.21-16.03-4.85-24.41-4.85s-16.67,1.65-24.41,4.85c-7.74,3.21-14.77,7.9-20.69,13.83-5.92,5.92-10.62,12.95-13.83,20.69-3.21,7.74-4.85,16.03-4.85,24.41s1.65,16.67,4.85,24.41c3.21,7.74,7.9,14.77,13.83,20.69s12.95,10.62,20.69,13.83c7.74,3.21,16.03,4.85,24.41,4.85s16.67-1.65,24.41-4.85c7.74-3.21,14.77-7.9,20.69-13.83,5.92-5.92,10.62-12.95,13.83-20.69,3.21-7.74,4.85-16.03,4.85-24.41"/>
    </clipPath>
    <clipPath id="clippath-12">
      <path class="cls-5" d="M332.13,85.34c0-8.38-1.65-16.67-4.85-24.41-3.21-7.74-7.9-14.77-13.83-20.69-5.92-5.92-12.95-10.62-20.69-13.83-7.74-3.21-16.03-4.85-24.41-4.85s-16.67,1.65-24.41,4.85c-7.74,3.21-14.77,7.9-20.69,13.83-5.92,5.92-10.62,12.95-13.83,20.69-3.21,7.74-4.85,16.03-4.85,24.41s1.65,16.67,4.85,24.41c3.21,7.74,7.9,14.77,13.83,20.69s12.95,10.62,20.69,13.83c7.74,3.21,16.03,4.85,24.41,4.85s16.67-1.65,24.41-4.85c7.74-3.21,14.77-7.9,20.69-13.83,5.92-5.92,10.62-12.95,13.83-20.69,3.21-7.74,4.85-16.03,4.85-24.41"/>
    </clipPath>
    <clipPath id="clippath-13">
      <path class="cls-5" d="M332.13,85.34c0-8.38-1.65-16.67-4.85-24.41-3.21-7.74-7.9-14.77-13.83-20.69-5.92-5.92-12.95-10.62-20.69-13.83-7.74-3.21-16.03-4.85-24.41-4.85s-16.67,1.65-24.41,4.85c-7.74,3.21-14.77,7.9-20.69,13.83-5.92,5.92-10.62,12.95-13.83,20.69-3.21,7.74-4.85,16.03-4.85,24.41s1.65,16.67,4.85,24.41c3.21,7.74,7.9,14.77,13.83,20.69s12.95,10.62,20.69,13.83c7.74,3.21,16.03,4.85,24.41,4.85s16.67-1.65,24.41-4.85c7.74-3.21,14.77-7.9,20.69-13.83,5.92-5.92,10.62-12.95,13.83-20.69,3.21-7.74,4.85-16.03,4.85-24.41"/>
    </clipPath>
    <clipPath id="clippath-14">
      <path class="cls-5" d="M332.13,85.34c0-8.38-1.65-16.67-4.85-24.41-3.21-7.74-7.9-14.77-13.83-20.69-5.92-5.92-12.95-10.62-20.69-13.83-7.74-3.21-16.03-4.85-24.41-4.85s-16.67,1.65-24.41,4.85c-7.74,3.21-14.77,7.9-20.69,13.83-5.92,5.92-10.62,12.95-13.83,20.69-3.21,7.74-4.85,16.03-4.85,24.41s1.65,16.67,4.85,24.41c3.21,7.74,7.9,14.77,13.83,20.69s12.95,10.62,20.69,13.83c7.74,3.21,16.03,4.85,24.41,4.85s16.67-1.65,24.41-4.85c7.74-3.21,14.77-7.9,20.69-13.83,5.92-5.92,10.62-12.95,13.83-20.69,3.21-7.74,4.85-16.03,4.85-24.41"/>
    </clipPath>
    <clipPath id="clippath-15">
      <path class="cls-5" d="M332.13,85.34c0-8.38-1.65-16.67-4.85-24.41-3.21-7.74-7.9-14.77-13.83-20.69-5.92-5.92-12.95-10.62-20.69-13.83-7.74-3.21-16.03-4.85-24.41-4.85s-16.67,1.65-24.41,4.85c-7.74,3.21-14.77,7.9-20.69,13.83-5.92,5.92-10.62,12.95-13.83,20.69-3.21,7.74-4.85,16.03-4.85,24.41s1.65,16.67,4.85,24.41c3.21,7.74,7.9,14.77,13.83,20.69s12.95,10.62,20.69,13.83c7.74,3.21,16.03,4.85,24.41,4.85s16.67-1.65,24.41-4.85c7.74-3.21,14.77-7.9,20.69-13.83,5.92-5.92,10.62-12.95,13.83-20.69,3.21-7.74,4.85-16.03,4.85-24.41"/>
    </clipPath>
    <clipPath id="clippath-16">
      <path class="cls-5" d="M332.13,85.34c0-8.38-1.65-16.67-4.85-24.41-3.21-7.74-7.9-14.77-13.83-20.69-5.92-5.92-12.95-10.62-20.69-13.83-7.74-3.21-16.03-4.85-24.41-4.85s-16.67,1.65-24.41,4.85c-7.74,3.21-14.77,7.9-20.69,13.83-5.92,5.92-10.62,12.95-13.83,20.69-3.21,7.74-4.85,16.03-4.85,24.41s1.65,16.67,4.85,24.41c3.21,7.74,7.9,14.77,13.83,20.69s12.95,10.62,20.69,13.83c7.74,3.21,16.03,4.85,24.41,4.85s16.67-1.65,24.41-4.85c7.74-3.21,14.77-7.9,20.69-13.83,5.92-5.92,10.62-12.95,13.83-20.69,3.21-7.74,4.85-16.03,4.85-24.41"/>
    </clipPath>
    <clipPath id="clippath-17">
      <path class="cls-5" d="M332.13,85.34c0-8.38-1.65-16.67-4.85-24.41-3.21-7.74-7.9-14.77-13.83-20.69-5.92-5.92-12.95-10.62-20.69-13.83-7.74-3.21-16.03-4.85-24.41-4.85s-16.67,1.65-24.41,4.85c-7.74,3.21-14.77,7.9-20.69,13.83-5.92,5.92-10.62,12.95-13.83,20.69-3.21,7.74-4.85,16.03-4.85,24.41s1.65,16.67,4.85,24.41c3.21,7.74,7.9,14.77,13.83,20.69s12.95,10.62,20.69,13.83c7.74,3.21,16.03,4.85,24.41,4.85s16.67-1.65,24.41-4.85c7.74-3.21,14.77-7.9,20.69-13.83,5.92-5.92,10.62-12.95,13.83-20.69,3.21-7.74,4.85-16.03,4.85-24.41"/>
    </clipPath>
    <clipPath id="clippath-18">
      <path class="cls-5" d="M502.21,85.34c0-8.38-1.65-16.67-4.85-24.41-3.21-7.74-7.9-14.77-13.83-20.69-5.92-5.92-12.95-10.62-20.69-13.83-7.74-3.21-16.03-4.85-24.41-4.85s-16.67,1.65-24.41,4.85c-7.74,3.21-14.77,7.9-20.69,13.83-5.92,5.92-10.62,12.95-13.83,20.69-3.21,7.74-4.85,16.03-4.85,24.41s1.65,16.67,4.85,24.41c3.21,7.74,7.9,14.77,13.83,20.69,5.92,5.92,12.95,10.62,20.69,13.83,7.74,3.21,16.03,4.85,24.41,4.85s16.67-1.65,24.41-4.85c7.74-3.21,14.77-7.9,20.69-13.83,5.92-5.92,10.62-12.95,13.83-20.69,3.21-7.74,4.85-16.03,4.85-24.41"/>
    </clipPath>
    <clipPath id="clippath-19">
      <path class="cls-5" d="M502.21,85.34c0-8.38-1.65-16.67-4.85-24.41-3.21-7.74-7.9-14.77-13.83-20.69-5.92-5.92-12.95-10.62-20.69-13.83-7.74-3.21-16.03-4.85-24.41-4.85s-16.67,1.65-24.41,4.85c-7.74,3.21-14.77,7.9-20.69,13.83-5.92,5.92-10.62,12.95-13.83,20.69-3.21,7.74-4.85,16.03-4.85,24.41s1.65,16.67,4.85,24.41c3.21,7.74,7.9,14.77,13.83,20.69,5.92,5.92,12.95,10.62,20.69,13.83,7.74,3.21,16.03,4.85,24.41,4.85s16.67-1.65,24.41-4.85c7.74-3.21,14.77-7.9,20.69-13.83,5.92-5.92,10.62-12.95,13.83-20.69,3.21-7.74,4.85-16.03,4.85-24.41"/>
    </clipPath>
    <clipPath id="clippath-20">
      <path class="cls-5" d="M502.21,85.34c0-8.38-1.65-16.67-4.85-24.41-3.21-7.74-7.9-14.77-13.83-20.69-5.92-5.92-12.95-10.62-20.69-13.83-7.74-3.21-16.03-4.85-24.41-4.85s-16.67,1.65-24.41,4.85c-7.74,3.21-14.77,7.9-20.69,13.83-5.92,5.92-10.62,12.95-13.83,20.69-3.21,7.74-4.85,16.03-4.85,24.41s1.65,16.67,4.85,24.41c3.21,7.74,7.9,14.77,13.83,20.69,5.92,5.92,12.95,10.62,20.69,13.83,7.74,3.21,16.03,4.85,24.41,4.85s16.67-1.65,24.41-4.85c7.74-3.21,14.77-7.9,20.69-13.83,5.92-5.92,10.62-12.95,13.83-20.69,3.21-7.74,4.85-16.03,4.85-24.41"/>
    </clipPath>
    <clipPath id="clippath-21">
      <path class="cls-5" d="M502.21,85.34c0-8.38-1.65-16.67-4.85-24.41-3.21-7.74-7.9-14.77-13.83-20.69-5.92-5.92-12.95-10.62-20.69-13.83-7.74-3.21-16.03-4.85-24.41-4.85s-16.67,1.65-24.41,4.85c-7.74,3.21-14.77,7.9-20.69,13.83-5.92,5.92-10.62,12.95-13.83,20.69-3.21,7.74-4.85,16.03-4.85,24.41s1.65,16.67,4.85,24.41c3.21,7.74,7.9,14.77,13.83,20.69,5.92,5.92,12.95,10.62,20.69,13.83,7.74,3.21,16.03,4.85,24.41,4.85s16.67-1.65,24.41-4.85c7.74-3.21,14.77-7.9,20.69-13.83,5.92-5.92,10.62-12.95,13.83-20.69,3.21-7.74,4.85-16.03,4.85-24.41"/>
    </clipPath>
    <clipPath id="clippath-22">
      <path class="cls-5" d="M502.21,85.34c0-8.38-1.65-16.67-4.85-24.41-3.21-7.74-7.9-14.77-13.83-20.69-5.92-5.92-12.95-10.62-20.69-13.83-7.74-3.21-16.03-4.85-24.41-4.85s-16.67,1.65-24.41,4.85c-7.74,3.21-14.77,7.9-20.69,13.83-5.92,5.92-10.62,12.95-13.83,20.69-3.21,7.74-4.85,16.03-4.85,24.41s1.65,16.67,4.85,24.41c3.21,7.74,7.9,14.77,13.83,20.69,5.92,5.92,12.95,10.62,20.69,13.83,7.74,3.21,16.03,4.85,24.41,4.85s16.67-1.65,24.41-4.85c7.74-3.21,14.77-7.9,20.69-13.83,5.92-5.92,10.62-12.95,13.83-20.69,3.21-7.74,4.85-16.03,4.85-24.41"/>
    </clipPath>
    <clipPath id="clippath-23">
      <path class="cls-5" d="M502.21,85.34c0-8.38-1.65-16.67-4.85-24.41-3.21-7.74-7.9-14.77-13.83-20.69-5.92-5.92-12.95-10.62-20.69-13.83-7.74-3.21-16.03-4.85-24.41-4.85s-16.67,1.65-24.41,4.85c-7.74,3.21-14.77,7.9-20.69,13.83-5.92,5.92-10.62,12.95-13.83,20.69-3.21,7.74-4.85,16.03-4.85,24.41s1.65,16.67,4.85,24.41c3.21,7.74,7.9,14.77,13.83,20.69,5.92,5.92,12.95,10.62,20.69,13.83,7.74,3.21,16.03,4.85,24.41,4.85s16.67-1.65,24.41-4.85c7.74-3.21,14.77-7.9,20.69-13.83,5.92-5.92,10.62-12.95,13.83-20.69,3.21-7.74,4.85-16.03,4.85-24.41"/>
    </clipPath>
    <clipPath id="clippath-24">
      <path class="cls-5" d="M502.21,85.34c0-8.38-1.65-16.67-4.85-24.41-3.21-7.74-7.9-14.77-13.83-20.69-5.92-5.92-12.95-10.62-20.69-13.83-7.74-3.21-16.03-4.85-24.41-4.85s-16.67,1.65-24.41,4.85c-7.74,3.21-14.77,7.9-20.69,13.83-5.92,5.92-10.62,12.95-13.83,20.69-3.21,7.74-4.85,16.03-4.85,24.41s1.65,16.67,4.85,24.41c3.21,7.74,7.9,14.77,13.83,20.69,5.92,5.92,12.95,10.62,20.69,13.83,7.74,3.21,16.03,4.85,24.41,4.85s16.67-1.65,24.41-4.85c7.74-3.21,14.77-7.9,20.69-13.83,5.92-5.92,10.62-12.95,13.83-20.69,3.21-7.74,4.85-16.03,4.85-24.41"/>
    </clipPath>
    <clipPath id="clippath-25">
      <path class="cls-5" d="M502.21,85.34c0-8.38-1.65-16.67-4.85-24.41-3.21-7.74-7.9-14.77-13.83-20.69-5.92-5.92-12.95-10.62-20.69-13.83-7.74-3.21-16.03-4.85-24.41-4.85s-16.67,1.65-24.41,4.85c-7.74,3.21-14.77,7.9-20.69,13.83-5.92,5.92-10.62,12.95-13.83,20.69-3.21,7.74-4.85,16.03-4.85,24.41s1.65,16.67,4.85,24.41c3.21,7.74,7.9,14.77,13.83,20.69,5.92,5.92,12.95,10.62,20.69,13.83,7.74,3.21,16.03,4.85,24.41,4.85s16.67-1.65,24.41-4.85c7.74-3.21,14.77-7.9,20.69-13.83,5.92-5.92,10.62-12.95,13.83-20.69,3.21-7.74,4.85-16.03,4.85-24.41"/>
    </clipPath>
    <clipPath id="clippath-26">
      <path class="cls-5" d="M502.21,85.34c0-8.38-1.65-16.67-4.85-24.41-3.21-7.74-7.9-14.77-13.83-20.69-5.92-5.92-12.95-10.62-20.69-13.83-7.74-3.21-16.03-4.85-24.41-4.85s-16.67,1.65-24.41,4.85c-7.74,3.21-14.77,7.9-20.69,13.83-5.92,5.92-10.62,12.95-13.83,20.69-3.21,7.74-4.85,16.03-4.85,24.41s1.65,16.67,4.85,24.41c3.21,7.74,7.9,14.77,13.83,20.69,5.92,5.92,12.95,10.62,20.69,13.83,7.74,3.21,16.03,4.85,24.41,4.85s16.67-1.65,24.41-4.85c7.74-3.21,14.77-7.9,20.69-13.83,5.92-5.92,10.62-12.95,13.83-20.69,3.21-7.74,4.85-16.03,4.85-24.41"/>
    </clipPath>
    <clipPath id="clippath-27">
      <path class="cls-5" d="M502.21,85.34c0-8.38-1.65-16.67-4.85-24.41-3.21-7.74-7.9-14.77-13.83-20.69-5.92-5.92-12.95-10.62-20.69-13.83-7.74-3.21-16.03-4.85-24.41-4.85s-16.67,1.65-24.41,4.85c-7.74,3.21-14.77,7.9-20.69,13.83-5.92,5.92-10.62,12.95-13.83,20.69-3.21,7.74-4.85,16.03-4.85,24.41s1.65,16.67,4.85,24.41c3.21,7.74,7.9,14.77,13.83,20.69,5.92,5.92,12.95,10.62,20.69,13.83,7.74,3.21,16.03,4.85,24.41,4.85s16.67-1.65,24.41-4.85c7.74-3.21,14.77-7.9,20.69-13.83,5.92-5.92,10.62-12.95,13.83-20.69,3.21-7.74,4.85-16.03,4.85-24.41"/>
    </clipPath>
    <clipPath id="clippath-28">
      <path class="cls-5" d="M502.21,85.34c0-8.38-1.65-16.67-4.85-24.41-3.21-7.74-7.9-14.77-13.83-20.69-5.92-5.92-12.95-10.62-20.69-13.83-7.74-3.21-16.03-4.85-24.41-4.85s-16.67,1.65-24.41,4.85c-7.74,3.21-14.77,7.9-20.69,13.83-5.92,5.92-10.62,12.95-13.83,20.69-3.21,7.74-4.85,16.03-4.85,24.41s1.65,16.67,4.85,24.41c3.21,7.74,7.9,14.77,13.83,20.69,5.92,5.92,12.95,10.62,20.69,13.83,7.74,3.21,16.03,4.85,24.41,4.85s16.67-1.65,24.41-4.85c7.74-3.21,14.77-7.9,20.69-13.83,5.92-5.92,10.62-12.95,13.83-20.69,3.21-7.74,4.85-16.03,4.85-24.41"/>
    </clipPath>
    <clipPath id="clippath-29">
      <path class="cls-5" d="M502.21,85.34c0-8.38-1.65-16.67-4.85-24.41-3.21-7.74-7.9-14.77-13.83-20.69-5.92-5.92-12.95-10.62-20.69-13.83-7.74-3.21-16.03-4.85-24.41-4.85s-16.67,1.65-24.41,4.85c-7.74,3.21-14.77,7.9-20.69,13.83-5.92,5.92-10.62,12.95-13.83,20.69-3.21,7.74-4.85,16.03-4.85,24.41s1.65,16.67,4.85,24.41c3.21,7.74,7.9,14.77,13.83,20.69,5.92,5.92,12.95,10.62,20.69,13.83,7.74,3.21,16.03,4.85,24.41,4.85s16.67-1.65,24.41-4.85c7.74-3.21,14.77-7.9,20.69-13.83,5.92-5.92,10.62-12.95,13.83-20.69,3.21-7.74,4.85-16.03,4.85-24.41"/>
    </clipPath>
    <clipPath id="clippath-30">
      <path class="cls-5" d="M502.21,85.34c0-8.38-1.65-16.67-4.85-24.41-3.21-7.74-7.9-14.77-13.83-20.69-5.92-5.92-12.95-10.62-20.69-13.83-7.74-3.21-16.03-4.85-24.41-4.85s-16.67,1.65-24.41,4.85c-7.74,3.21-14.77,7.9-20.69,13.83-5.92,5.92-10.62,12.95-13.83,20.69-3.21,7.74-4.85,16.03-4.85,24.41s1.65,16.67,4.85,24.41c3.21,7.74,7.9,14.77,13.83,20.69,5.92,5.92,12.95,10.62,20.69,13.83,7.74,3.21,16.03,4.85,24.41,4.85s16.67-1.65,24.41-4.85c7.74-3.21,14.77-7.9,20.69-13.83,5.92-5.92,10.62-12.95,13.83-20.69,3.21-7.74,4.85-16.03,4.85-24.41"/>
    </clipPath>
    <clipPath id="clippath-31">
      <path class="cls-5" d="M502.21,85.34c0-8.38-1.65-16.67-4.85-24.41-3.21-7.74-7.9-14.77-13.83-20.69-5.92-5.92-12.95-10.62-20.69-13.83-7.74-3.21-16.03-4.85-24.41-4.85s-16.67,1.65-24.41,4.85c-7.74,3.21-14.77,7.9-20.69,13.83-5.92,5.92-10.62,12.95-13.83,20.69-3.21,7.74-4.85,16.03-4.85,24.41s1.65,16.67,4.85,24.41c3.21,7.74,7.9,14.77,13.83,20.69,5.92,5.92,12.95,10.62,20.69,13.83,7.74,3.21,16.03,4.85,24.41,4.85s16.67-1.65,24.41-4.85c7.74-3.21,14.77-7.9,20.69-13.83,5.92-5.92,10.62-12.95,13.83-20.69,3.21-7.74,4.85-16.03,4.85-24.41"/>
    </clipPath>
    <clipPath id="clippath-32">
      <path class="cls-5" d="M502.21,85.34c0-8.38-1.65-16.67-4.85-24.41-3.21-7.74-7.9-14.77-13.83-20.69-5.92-5.92-12.95-10.62-20.69-13.83-7.74-3.21-16.03-4.85-24.41-4.85s-16.67,1.65-24.41,4.85c-7.74,3.21-14.77,7.9-20.69,13.83-5.92,5.92-10.62,12.95-13.83,20.69-3.21,7.74-4.85,16.03-4.85,24.41s1.65,16.67,4.85,24.41c3.21,7.74,7.9,14.77,13.83,20.69,5.92,5.92,12.95,10.62,20.69,13.83,7.74,3.21,16.03,4.85,24.41,4.85s16.67-1.65,24.41-4.85c7.74-3.21,14.77-7.9,20.69-13.83,5.92-5.92,10.62-12.95,13.83-20.69,3.21-7.74,4.85-16.03,4.85-24.41"/>
    </clipPath>
    <clipPath id="clippath-33">
      <path class="cls-5" d="M502.21,85.34c0-8.38-1.65-16.67-4.85-24.41-3.21-7.74-7.9-14.77-13.83-20.69-5.92-5.92-12.95-10.62-20.69-13.83-7.74-3.21-16.03-4.85-24.41-4.85s-16.67,1.65-24.41,4.85c-7.74,3.21-14.77,7.9-20.69,13.83-5.92,5.92-10.62,12.95-13.83,20.69-3.21,7.74-4.85,16.03-4.85,24.41s1.65,16.67,4.85,24.41c3.21,7.74,7.9,14.77,13.83,20.69,5.92,5.92,12.95,10.62,20.69,13.83,7.74,3.21,16.03,4.85,24.41,4.85s16.67-1.65,24.41-4.85c7.74-3.21,14.77-7.9,20.69-13.83,5.92-5.92,10.62-12.95,13.83-20.69,3.21-7.74,4.85-16.03,4.85-24.41"/>
    </clipPath>
    <clipPath id="clippath-34">
      <path class="cls-5" d="M502.21,85.34c0-8.38-1.65-16.67-4.85-24.41-3.21-7.74-7.9-14.77-13.83-20.69-5.92-5.92-12.95-10.62-20.69-13.83-7.74-3.21-16.03-4.85-24.41-4.85s-16.67,1.65-24.41,4.85c-7.74,3.21-14.77,7.9-20.69,13.83-5.92,5.92-10.62,12.95-13.83,20.69-3.21,7.74-4.85,16.03-4.85,24.41s1.65,16.67,4.85,24.41c3.21,7.74,7.9,14.77,13.83,20.69,5.92,5.92,12.95,10.62,20.69,13.83,7.74,3.21,16.03,4.85,24.41,4.85s16.67-1.65,24.41-4.85c7.74-3.21,14.77-7.9,20.69-13.83,5.92-5.92,10.62-12.95,13.83-20.69,3.21-7.74,4.85-16.03,4.85-24.41"/>
    </clipPath>
    <clipPath id="clippath-35">
      <path class="cls-5" d="M502.21,85.34c0-8.38-1.65-16.67-4.85-24.41-3.21-7.74-7.9-14.77-13.83-20.69-5.92-5.92-12.95-10.62-20.69-13.83-7.74-3.21-16.03-4.85-24.41-4.85s-16.67,1.65-24.41,4.85c-7.74,3.21-14.77,7.9-20.69,13.83-5.92,5.92-10.62,12.95-13.83,20.69-3.21,7.74-4.85,16.03-4.85,24.41s1.65,16.67,4.85,24.41c3.21,7.74,7.9,14.77,13.83,20.69,5.92,5.92,12.95,10.62,20.69,13.83,7.74,3.21,16.03,4.85,24.41,4.85s16.67-1.65,24.41-4.85c7.74-3.21,14.77-7.9,20.69-13.83,5.92-5.92,10.62-12.95,13.83-20.69,3.21-7.74,4.85-16.03,4.85-24.41"/>
    </clipPath>
    <clipPath id="clippath-36">
      <path class="cls-1" d="M139.33,53.45c-4.19-7.25-9.76-13.61-16.41-18.71-6.64-5.1-14.23-8.84-22.32-11.01-8.09-2.17-16.53-2.72-24.83-1.63-8.3,1.09-16.31,3.81-23.56,8-7.25,4.19-13.61,9.76-18.71,16.41-5.1,6.64-8.84,14.23-11.01,22.32-2.17,8.09-2.72,16.53-1.63,24.83,1.09,8.3,3.81,16.31,8,23.56s9.76,13.61,16.41,18.71c6.64,5.1,14.23,8.84,22.32,11.01,8.09,2.17,16.53,2.72,24.83,1.63,8.3-1.09,16.31-3.81,23.56-8,7.25-4.19,13.61-9.76,18.71-16.41,5.1-6.64,8.84-14.23,11.01-22.32,2.17-8.09,2.72-16.53,1.63-24.83-1.09-8.3-3.81-16.31-8-23.56"/>
    </clipPath>
    <clipPath id="clippath-37">
      <path class="cls-1" d="M139.33,53.45c-4.19-7.25-9.76-13.61-16.41-18.71-6.64-5.1-14.23-8.84-22.32-11.01-8.09-2.17-16.53-2.72-24.83-1.63-8.3,1.09-16.31,3.81-23.56,8-7.25,4.19-13.61,9.76-18.71,16.41-5.1,6.64-8.84,14.23-11.01,22.32-2.17,8.09-2.72,16.53-1.63,24.83,1.09,8.3,3.81,16.31,8,23.56,4.19,7.25,9.76,13.61,16.41,18.71,6.64,5.1,14.23,8.84,22.32,11.01,8.09,2.17,16.53,2.72,24.83,1.63,8.3-1.09,16.31-3.81,23.56-8,7.25-4.19,13.61-9.76,18.71-16.41,5.1-6.64,8.84-14.23,11.01-22.32,2.17-8.09,2.72-16.53,1.63-24.83-1.09-8.3-3.81-16.31-8-23.56"/>
    </clipPath>
    <clipPath id="clippath-38">
      <path class="cls-1" d="M139.33,53.45c-4.19-7.25-9.76-13.61-16.41-18.71-6.64-5.1-14.23-8.84-22.32-11.01-8.09-2.17-16.53-2.72-24.83-1.63-8.3,1.09-16.31,3.81-23.56,8-7.25,4.19-13.61,9.76-18.71,16.41-5.1,6.64-8.84,14.23-11.01,22.32-2.17,8.09-2.72,16.53-1.63,24.83,1.09,8.3,3.81,16.31,8,23.56,4.19,7.25,9.76,13.61,16.41,18.71,6.64,5.1,14.23,8.84,22.32,11.01,8.09,2.17,16.53,2.72,24.83,1.63,8.3-1.09,16.31-3.81,23.56-8,7.25-4.19,13.61-9.76,18.71-16.41,5.1-6.64,8.84-14.23,11.01-22.32,2.17-8.09,2.72-16.53,1.63-24.83-1.09-8.3-3.81-16.31-8-23.56"/>
    </clipPath>
    <clipPath id="clippath-39">
      <path class="cls-1" d="M139.33,53.45c-4.19-7.25-9.76-13.61-16.41-18.71-6.64-5.1-14.23-8.84-22.32-11.01-8.09-2.17-16.53-2.72-24.83-1.63-8.3,1.09-16.31,3.81-23.56,8-7.25,4.19-13.61,9.76-18.71,16.41-5.1,6.64-8.84,14.23-11.01,22.32-2.17,8.09-2.72,16.53-1.63,24.83,1.09,8.3,3.81,16.31,8,23.56,4.19,7.25,9.76,13.61,16.41,18.71,6.64,5.1,14.23,8.84,22.32,11.01,8.09,2.17,16.53,2.72,24.83,1.63,8.3-1.09,16.31-3.81,23.56-8,7.25-4.19,13.61-9.76,18.71-16.41,5.1-6.64,8.84-14.23,11.01-22.32,2.17-8.09,2.72-16.53,1.63-24.83-1.09-8.3-3.81-16.31-8-23.56"/>
    </clipPath>
    <clipPath id="clippath-40">
      <path class="cls-1" d="M139.33,53.45c-4.19-7.25-9.76-13.61-16.41-18.71-6.64-5.1-14.23-8.84-22.32-11.01-8.09-2.17-16.53-2.72-24.83-1.63-8.3,1.09-16.31,3.81-23.56,8-7.25,4.19-13.61,9.76-18.71,16.41-5.1,6.64-8.84,14.23-11.01,22.32-2.17,8.09-2.72,16.53-1.63,24.83,1.09,8.3,3.81,16.31,8,23.56,4.19,7.25,9.76,13.61,16.41,18.71,6.64,5.1,14.23,8.84,22.32,11.01,8.09,2.17,16.53,2.72,24.83,1.63,8.3-1.09,16.31-3.81,23.56-8,7.25-4.19,13.61-9.76,18.71-16.41,5.1-6.64,8.84-14.23,11.01-22.32,2.17-8.09,2.72-16.53,1.63-24.83-1.09-8.3-3.81-16.31-8-23.56"/>
    </clipPath>
    <clipPath id="clippath-41">
      <path class="cls-1" d="M139.33,53.45c-4.19-7.25-9.76-13.61-16.41-18.71-6.64-5.1-14.23-8.84-22.32-11.01-8.09-2.17-16.53-2.72-24.83-1.63-8.3,1.09-16.31,3.81-23.56,8-7.25,4.19-13.61,9.76-18.71,16.41-5.1,6.64-8.84,14.23-11.01,22.32-2.17,8.09-2.72,16.53-1.63,24.83,1.09,8.3,3.81,16.31,8,23.56,4.19,7.25,9.76,13.61,16.41,18.71,6.64,5.1,14.23,8.84,22.32,11.01,8.09,2.17,16.53,2.72,24.83,1.63,8.3-1.09,16.31-3.81,23.56-8,7.25-4.19,13.61-9.76,18.71-16.41,5.1-6.64,8.84-14.23,11.01-22.32,2.17-8.09,2.72-16.53,1.63-24.83-1.09-8.3-3.81-16.31-8-23.56"/>
    </clipPath>
    <clipPath id="clippath-42">
      <path class="cls-1" d="M139.33,53.45c-4.19-7.25-9.76-13.61-16.41-18.71-6.64-5.1-14.23-8.84-22.32-11.01-8.09-2.17-16.53-2.72-24.83-1.63-8.3,1.09-16.31,3.81-23.56,8-7.25,4.19-13.61,9.76-18.71,16.41-5.1,6.64-8.84,14.23-11.01,22.32-2.17,8.09-2.72,16.53-1.63,24.83,1.09,8.3,3.81,16.31,8,23.56,4.19,7.25,9.76,13.61,16.41,18.71,6.64,5.1,14.23,8.84,22.32,11.01,8.09,2.17,16.53,2.72,24.83,1.63,8.3-1.09,16.31-3.81,23.56-8,7.25-4.19,13.61-9.76,18.71-16.41,5.1-6.64,8.84-14.23,11.01-22.32,2.17-8.09,2.72-16.53,1.63-24.83-1.09-8.3-3.81-16.31-8-23.56"/>
    </clipPath>
    <clipPath id="clippath-43">
      <path class="cls-1" d="M139.33,53.45c-4.19-7.25-9.76-13.61-16.41-18.71-6.64-5.1-14.23-8.84-22.32-11.01-8.09-2.17-16.53-2.72-24.83-1.63-8.3,1.09-16.31,3.81-23.56,8-7.25,4.19-13.61,9.76-18.71,16.41-5.1,6.64-8.84,14.23-11.01,22.32-2.17,8.09-2.72,16.53-1.63,24.83,1.09,8.3,3.81,16.31,8,23.56,4.19,7.25,9.76,13.61,16.41,18.71,6.64,5.1,14.23,8.84,22.32,11.01,8.09,2.17,16.53,2.72,24.83,1.63,8.3-1.09,16.31-3.81,23.56-8,7.25-4.19,13.61-9.76,18.71-16.41,5.1-6.64,8.84-14.23,11.01-22.32,2.17-8.09,2.72-16.53,1.63-24.83-1.09-8.3-3.81-16.31-8-23.56"/>
    </clipPath>
    <clipPath id="clippath-44">
      <path class="cls-1" d="M139.33,53.45c-4.19-7.25-9.76-13.61-16.41-18.71-6.64-5.1-14.23-8.84-22.32-11.01-8.09-2.17-16.53-2.72-24.83-1.63-8.3,1.09-16.31,3.81-23.56,8-7.25,4.19-13.61,9.76-18.71,16.41-5.1,6.64-8.84,14.23-11.01,22.32-2.17,8.09-2.72,16.53-1.63,24.83,1.09,8.3,3.81,16.31,8,23.56,4.19,7.25,9.76,13.61,16.41,18.71,6.64,5.1,14.23,8.84,22.32,11.01,8.09,2.17,16.53,2.72,24.83,1.63,8.3-1.09,16.31-3.81,23.56-8,7.25-4.19,13.61-9.76,18.71-16.41,5.1-6.64,8.84-14.23,11.01-22.32,2.17-8.09,2.72-16.53,1.63-24.83-1.09-8.3-3.81-16.31-8-23.56"/>
    </clipPath>
    <clipPath id="clippath-45">
      <path class="cls-1" d="M139.33,53.45c-4.19-7.25-9.76-13.61-16.41-18.71-6.64-5.1-14.23-8.84-22.32-11.01-8.09-2.17-16.53-2.72-24.83-1.63-8.3,1.09-16.31,3.81-23.56,8-7.25,4.19-13.61,9.76-18.71,16.41-5.1,6.64-8.84,14.23-11.01,22.32-2.17,8.09-2.72,16.53-1.63,24.83,1.09,8.3,3.81,16.31,8,23.56,4.19,7.25,9.76,13.61,16.41,18.71,6.64,5.1,14.23,8.84,22.32,11.01,8.09,2.17,16.53,2.72,24.83,1.63,8.3-1.09,16.31-3.81,23.56-8,7.25-4.19,13.61-9.76,18.71-16.41,5.1-6.64,8.84-14.23,11.01-22.32,2.17-8.09,2.72-16.53,1.63-24.83-1.09-8.3-3.81-16.31-8-23.56"/>
    </clipPath>
    <clipPath id="clippath-46">
      <path class="cls-1" d="M139.33,53.45c-4.19-7.25-9.76-13.61-16.41-18.71-6.64-5.1-14.23-8.84-22.32-11.01-8.09-2.17-16.53-2.72-24.83-1.63-8.3,1.09-16.31,3.81-23.56,8-7.25,4.19-13.61,9.76-18.71,16.41-5.1,6.64-8.84,14.23-11.01,22.32-2.17,8.09-2.72,16.53-1.63,24.83,1.09,8.3,3.81,16.31,8,23.56,4.19,7.25,9.76,13.61,16.41,18.71,6.64,5.1,14.23,8.84,22.32,11.01,8.09,2.17,16.53,2.72,24.83,1.63,8.3-1.09,16.31-3.81,23.56-8,7.25-4.19,13.61-9.76,18.71-16.41,5.1-6.64,8.84-14.23,11.01-22.32,2.17-8.09,2.72-16.53,1.63-24.83-1.09-8.3-3.81-16.31-8-23.56"/>
    </clipPath>
    <clipPath id="clippath-47">
      <path class="cls-1" d="M139.33,53.45c-4.19-7.25-9.76-13.61-16.41-18.71-6.64-5.1-14.23-8.84-22.32-11.01-8.09-2.17-16.53-2.72-24.83-1.63-8.3,1.09-16.31,3.81-23.56,8-7.25,4.19-13.61,9.76-18.71,16.41-5.1,6.64-8.84,14.23-11.01,22.32-2.17,8.09-2.72,16.53-1.63,24.83,1.09,8.3,3.81,16.31,8,23.56,4.19,7.25,9.76,13.61,16.41,18.71,6.64,5.1,14.23,8.84,22.32,11.01,8.09,2.17,16.53,2.72,24.83,1.63,8.3-1.09,16.31-3.81,23.56-8,7.25-4.19,13.61-9.76,18.71-16.41,5.1-6.64,8.84-14.23,11.01-22.32,2.17-8.09,2.72-16.53,1.63-24.83-1.09-8.3-3.81-16.31-8-23.56"/>
    </clipPath>
    <clipPath id="clippath-48">
      <path class="cls-1" d="M139.33,53.45c-4.19-7.25-9.76-13.61-16.41-18.71-6.64-5.1-14.23-8.84-22.32-11.01-8.09-2.17-16.53-2.72-24.83-1.63-8.3,1.09-16.31,3.81-23.56,8-7.25,4.19-13.61,9.76-18.71,16.41-5.1,6.64-8.84,14.23-11.01,22.32-2.17,8.09-2.72,16.53-1.63,24.83,1.09,8.3,3.81,16.31,8,23.56,4.19,7.25,9.76,13.61,16.41,18.71,6.64,5.1,14.23,8.84,22.32,11.01,8.09,2.17,16.53,2.72,24.83,1.63,8.3-1.09,16.31-3.81,23.56-8,7.25-4.19,13.61-9.76,18.71-16.41,5.1-6.64,8.84-14.23,11.01-22.32,2.17-8.09,2.72-16.53,1.63-24.83-1.09-8.3-3.81-16.31-8-23.56"/>
    </clipPath>
    <clipPath id="clippath-49">
      <path class="cls-1" d="M139.33,53.45c-4.19-7.25-9.76-13.61-16.41-18.71-6.64-5.1-14.23-8.84-22.32-11.01-8.09-2.17-16.53-2.72-24.83-1.63-8.3,1.09-16.31,3.81-23.56,8-7.25,4.19-13.61,9.76-18.71,16.41-5.1,6.64-8.84,14.23-11.01,22.32-2.17,8.09-2.72,16.53-1.63,24.83,1.09,8.3,3.81,16.31,8,23.56,4.19,7.25,9.76,13.61,16.41,18.71,6.64,5.1,14.23,8.84,22.32,11.01,8.09,2.17,16.53,2.72,24.83,1.63,8.3-1.09,16.31-3.81,23.56-8,7.25-4.19,13.61-9.76,18.71-16.41,5.1-6.64,8.84-14.23,11.01-22.32,2.17-8.09,2.72-16.53,1.63-24.83-1.09-8.3-3.81-16.31-8-23.56"/>
    </clipPath>
    <clipPath id="clippath-50">
      <path class="cls-1" d="M139.33,53.45c-4.19-7.25-9.76-13.61-16.41-18.71-6.64-5.1-14.23-8.84-22.32-11.01-8.09-2.17-16.53-2.72-24.83-1.63-8.3,1.09-16.31,3.81-23.56,8-7.25,4.19-13.61,9.76-18.71,16.41-5.1,6.64-8.84,14.23-11.01,22.32-2.17,8.09-2.72,16.53-1.63,24.83,1.09,8.3,3.81,16.31,8,23.56,4.19,7.25,9.76,13.61,16.41,18.71,6.64,5.1,14.23,8.84,22.32,11.01,8.09,2.17,16.53,2.72,24.83,1.63,8.3-1.09,16.31-3.81,23.56-8,7.25-4.19,13.61-9.76,18.71-16.41,5.1-6.64,8.84-14.23,11.01-22.32,2.17-8.09,2.72-16.53,1.63-24.83-1.09-8.3-3.81-16.31-8-23.56"/>
    </clipPath>
    <clipPath id="clippath-51">
      <path class="cls-1" d="M139.33,53.45c-4.19-7.25-9.76-13.61-16.41-18.71-6.64-5.1-14.23-8.84-22.32-11.01-8.09-2.17-16.53-2.72-24.83-1.63-8.3,1.09-16.31,3.81-23.56,8-7.25,4.19-13.61,9.76-18.71,16.41-5.1,6.64-8.84,14.23-11.01,22.32-2.17,8.09-2.72,16.53-1.63,24.83,1.09,8.3,3.81,16.31,8,23.56,4.19,7.25,9.76,13.61,16.41,18.71,6.64,5.1,14.23,8.84,22.32,11.01,8.09,2.17,16.53,2.72,24.83,1.63,8.3-1.09,16.31-3.81,23.56-8,7.25-4.19,13.61-9.76,18.71-16.41,5.1-6.64,8.84-14.23,11.01-22.32,2.17-8.09,2.72-16.53,1.63-24.83-1.09-8.3-3.81-16.31-8-23.56"/>
    </clipPath>
    <clipPath id="clippath-52">
      <path class="cls-1" d="M139.33,53.45c-4.19-7.25-9.76-13.61-16.41-18.71-6.64-5.1-14.23-8.84-22.32-11.01-8.09-2.17-16.53-2.72-24.83-1.63-8.3,1.09-16.31,3.81-23.56,8-7.25,4.19-13.61,9.76-18.71,16.41-5.1,6.64-8.84,14.23-11.01,22.32-2.17,8.09-2.72,16.53-1.63,24.83,1.09,8.3,3.81,16.31,8,23.56,4.19,7.25,9.76,13.61,16.41,18.71,6.64,5.1,14.23,8.84,22.32,11.01,8.09,2.17,16.53,2.72,24.83,1.63,8.3-1.09,16.31-3.81,23.56-8,7.25-4.19,13.61-9.76,18.71-16.41,5.1-6.64,8.84-14.23,11.01-22.32,2.17-8.09,2.72-16.53,1.63-24.83-1.09-8.3-3.81-16.31-8-23.56"/>
    </clipPath>
  </defs>
  <g id="_图层_1-2" data-name="图层 1">
    <g>
      <g>
        <g>
          <line class="cls-17" x1="323.91" y1="161.07" x2="346.59" y2="161.07"/>
          <text class="cls-27" transform="translate(348.01 163.79)"><tspan x="0" y="0">Q</tspan><tspan class="cls-108" x="7.28" y="0">w</tspan><tspan class="cls-96" x="14.03" y="0">en3-4B</tspan></text>
        </g>
        <g>
          <line class="cls-9" x1="398.23" y1="161.07" x2="420.91" y2="161.07"/>
          <text class="cls-27" transform="translate(422.33 163.79)"><tspan class="cls-124" x="0" y="0">S</tspan><tspan class="cls-90" x="5.14" y="0">PIRAL</tspan></text>
        </g>
        <g>
          <line class="cls-22" x1="456.09" y1="161.07" x2="478.76" y2="161.07"/>
          <text class="cls-27" transform="translate(480.18 163.79)"><tspan x="0" y="0">MA</tspan><tspan class="cls-131" x="12.87" y="0">R</tspan><tspan class="cls-124" x="18.27" y="0">S</tspan><tspan x="23.41" y="0">HAL</tspan></text>
        </g>
      </g>
      <g>
        <g>
          <g class="cls-133">
            <g>
              <polygon class="cls-35" points="268.35 39.92 313.68 49.19 323.97 98.03 284.96 119.81 242.52 138.97 221.44 96.04 227.26 52.57 268.35 39.92"/>
              <polygon class="cls-12" points="268.35 39.92 313.68 49.19 323.97 98.03 284.96 119.81 242.52 138.97 221.44 96.04 227.26 52.57 268.35 39.92"/>
            </g>
          </g>
          <path class="cls-5" d="M332.13,85.34c0-8.38-1.65-16.67-4.85-24.41-3.21-7.74-7.9-14.77-13.83-20.69-5.92-5.92-12.95-10.62-20.69-13.83-7.74-3.21-16.03-4.85-24.41-4.85s-16.67,1.65-24.41,4.85c-7.74,3.21-14.77,7.9-20.69,13.83-5.92,5.92-10.62,12.95-13.83,20.69-3.21,7.74-4.85,16.03-4.85,24.41s1.65,16.67,4.85,24.41c3.21,7.74,7.9,14.77,13.83,20.69s12.95,10.62,20.69,13.83c7.74,3.21,16.03,4.85,24.41,4.85s16.67-1.65,24.41-4.85c7.74-3.21,14.77-7.9,20.69-13.83,5.92-5.92,10.62-12.95,13.83-20.69,3.21-7.74,4.85-16.03,4.85-24.41"/>
        </g>
        <g>
          <g class="cls-80">
            <line class="cls-23" x1="268.35" y1="85.34" x2="268.35" y2="21.56"/>
          </g>
          <path class="cls-5" d="M332.13,85.34c0-8.38-1.65-16.67-4.85-24.41-3.21-7.74-7.9-14.77-13.83-20.69-5.92-5.92-12.95-10.62-20.69-13.83-7.74-3.21-16.03-4.85-24.41-4.85s-16.67,1.65-24.41,4.85c-7.74,3.21-14.77,7.9-20.69,13.83-5.92,5.92-10.62,12.95-13.83,20.69-3.21,7.74-4.85,16.03-4.85,24.41s1.65,16.67,4.85,24.41c3.21,7.74,7.9,14.77,13.83,20.69s12.95,10.62,20.69,13.83c7.74,3.21,16.03,4.85,24.41,4.85s16.67-1.65,24.41-4.85c7.74-3.21,14.77-7.9,20.69-13.83,5.92-5.92,10.62-12.95,13.83-20.69,3.21-7.74,4.85-16.03,4.85-24.41"/>
        </g>
        <g>
          <g class="cls-83">
            <line class="cls-23" x1="268.35" y1="85.34" x2="318.22" y2="45.57"/>
          </g>
          <path class="cls-5" d="M332.13,85.34c0-8.38-1.65-16.67-4.85-24.41-3.21-7.74-7.9-14.77-13.83-20.69-5.92-5.92-12.95-10.62-20.69-13.83-7.74-3.21-16.03-4.85-24.41-4.85s-16.67,1.65-24.41,4.85c-7.74,3.21-14.77,7.9-20.69,13.83-5.92,5.92-10.62,12.95-13.83,20.69-3.21,7.74-4.85,16.03-4.85,24.41s1.65,16.67,4.85,24.41c3.21,7.74,7.9,14.77,13.83,20.69s12.95,10.62,20.69,13.83c7.74,3.21,16.03,4.85,24.41,4.85s16.67-1.65,24.41-4.85c7.74-3.21,14.77-7.9,20.69-13.83,5.92-5.92,10.62-12.95,13.83-20.69,3.21-7.74,4.85-16.03,4.85-24.41"/>
        </g>
        <g>
          <g class="cls-81">
            <line class="cls-23" x1="268.35" y1="85.34" x2="330.53" y2="99.53"/>
          </g>
          <path class="cls-5" d="M332.13,85.34c0-8.38-1.65-16.67-4.85-24.41-3.21-7.74-7.9-14.77-13.83-20.69-5.92-5.92-12.95-10.62-20.69-13.83-7.74-3.21-16.03-4.85-24.41-4.85s-16.67,1.65-24.41,4.85c-7.74,3.21-14.77,7.9-20.69,13.83-5.92,5.92-10.62,12.95-13.83,20.69-3.21,7.74-4.85,16.03-4.85,24.41s1.65,16.67,4.85,24.41c3.21,7.74,7.9,14.77,13.83,20.69s12.95,10.62,20.69,13.83c7.74,3.21,16.03,4.85,24.41,4.85s16.67-1.65,24.41-4.85c7.74-3.21,14.77-7.9,20.69-13.83,5.92-5.92,10.62-12.95,13.83-20.69,3.21-7.74,4.85-16.03,4.85-24.41"/>
        </g>
        <g>
          <g class="cls-82">
            <line class="cls-23" x1="268.35" y1="85.34" x2="296.02" y2="142.8"/>
          </g>
          <path class="cls-5" d="M332.13,85.34c0-8.38-1.65-16.67-4.85-24.41-3.21-7.74-7.9-14.77-13.83-20.69-5.92-5.92-12.95-10.62-20.69-13.83-7.74-3.21-16.03-4.85-24.41-4.85s-16.67,1.65-24.41,4.85c-7.74,3.21-14.77,7.9-20.69,13.83-5.92,5.92-10.62,12.95-13.83,20.69-3.21,7.74-4.85,16.03-4.85,24.41s1.65,16.67,4.85,24.41c3.21,7.74,7.9,14.77,13.83,20.69s12.95,10.62,20.69,13.83c7.74,3.21,16.03,4.85,24.41,4.85s16.67-1.65,24.41-4.85c7.74-3.21,14.77-7.9,20.69-13.83,5.92-5.92,10.62-12.95,13.83-20.69,3.21-7.74,4.85-16.03,4.85-24.41"/>
        </g>
        <g>
          <g class="cls-88">
            <line class="cls-23" x1="268.35" y1="85.34" x2="240.68" y2="142.8"/>
          </g>
          <path class="cls-5" d="M332.13,85.34c0-8.38-1.65-16.67-4.85-24.41-3.21-7.74-7.9-14.77-13.83-20.69-5.92-5.92-12.95-10.62-20.69-13.83-7.74-3.21-16.03-4.85-24.41-4.85s-16.67,1.65-24.41,4.85c-7.74,3.21-14.77,7.9-20.69,13.83-5.92,5.92-10.62,12.95-13.83,20.69-3.21,7.74-4.85,16.03-4.85,24.41s1.65,16.67,4.85,24.41c3.21,7.74,7.9,14.77,13.83,20.69s12.95,10.62,20.69,13.83c7.74,3.21,16.03,4.85,24.41,4.85s16.67-1.65,24.41-4.85c7.74-3.21,14.77-7.9,20.69-13.83,5.92-5.92,10.62-12.95,13.83-20.69,3.21-7.74,4.85-16.03,4.85-24.41"/>
        </g>
        <g>
          <g class="cls-85">
            <line class="cls-23" x1="268.35" y1="85.34" x2="206.17" y2="99.53"/>
          </g>
          <path class="cls-5" d="M332.13,85.34c0-8.38-1.65-16.67-4.85-24.41-3.21-7.74-7.9-14.77-13.83-20.69-5.92-5.92-12.95-10.62-20.69-13.83-7.74-3.21-16.03-4.85-24.41-4.85s-16.67,1.65-24.41,4.85c-7.74,3.21-14.77,7.9-20.69,13.83-5.92,5.92-10.62,12.95-13.83,20.69-3.21,7.74-4.85,16.03-4.85,24.41s1.65,16.67,4.85,24.41c3.21,7.74,7.9,14.77,13.83,20.69s12.95,10.62,20.69,13.83c7.74,3.21,16.03,4.85,24.41,4.85s16.67-1.65,24.41-4.85c7.74-3.21,14.77-7.9,20.69-13.83,5.92-5.92,10.62-12.95,13.83-20.69,3.21-7.74,4.85-16.03,4.85-24.41"/>
        </g>
        <g>
          <g class="cls-84">
            <line class="cls-23" x1="268.35" y1="85.34" x2="218.49" y2="45.57"/>
          </g>
          <path class="cls-5" d="M332.13,85.34c0-8.38-1.65-16.67-4.85-24.41-3.21-7.74-7.9-14.77-13.83-20.69-5.92-5.92-12.95-10.62-20.69-13.83-7.74-3.21-16.03-4.85-24.41-4.85s-16.67,1.65-24.41,4.85c-7.74,3.21-14.77,7.9-20.69,13.83-5.92,5.92-10.62,12.95-13.83,20.69-3.21,7.74-4.85,16.03-4.85,24.41s1.65,16.67,4.85,24.41c3.21,7.74,7.9,14.77,13.83,20.69s12.95,10.62,20.69,13.83c7.74,3.21,16.03,4.85,24.41,4.85s16.67-1.65,24.41-4.85c7.74-3.21,14.77-7.9,20.69-13.83,5.92-5.92,10.62-12.95,13.83-20.69,3.21-7.74,4.85-16.03,4.85-24.41"/>
        </g>
        <g>
          <g class="cls-87">
            <path class="cls-23" d="M268.35,72.58c1.68,0,3.33.33,4.88.97,1.55.64,2.95,1.58,4.14,2.77s2.12,2.59,2.77,4.14c.64,1.55.97,3.21.97,4.88s-.33,3.33-.97,4.88c-.64,1.55-1.58,2.95-2.77,4.14s-2.59,2.12-4.14,2.77c-1.55.64-3.21.97-4.88.97s-3.33-.33-4.88-.97c-1.55-.64-2.95-1.58-4.14-2.77-1.18-1.18-2.12-2.59-2.77-4.14-.64-1.55-.97-3.21-.97-4.88s.33-3.33.97-4.88c.64-1.55,1.58-2.95,2.77-4.14,1.18-1.18,2.59-2.12,4.14-2.77,1.55-.64,3.21-.97,4.88-.97"/>
          </g>
          <path class="cls-5" d="M332.13,85.34c0-8.38-1.65-16.67-4.85-24.41-3.21-7.74-7.9-14.77-13.83-20.69-5.92-5.92-12.95-10.62-20.69-13.83-7.74-3.21-16.03-4.85-24.41-4.85s-16.67,1.65-24.41,4.85c-7.74,3.21-14.77,7.9-20.69,13.83-5.92,5.92-10.62,12.95-13.83,20.69-3.21,7.74-4.85,16.03-4.85,24.41s1.65,16.67,4.85,24.41c3.21,7.74,7.9,14.77,13.83,20.69s12.95,10.62,20.69,13.83c7.74,3.21,16.03,4.85,24.41,4.85s16.67-1.65,24.41-4.85c7.74-3.21,14.77-7.9,20.69-13.83,5.92-5.92,10.62-12.95,13.83-20.69,3.21-7.74,4.85-16.03,4.85-24.41"/>
        </g>
        <g>
          <g class="cls-86">
            <path class="cls-23" d="M268.35,59.82c3.35,0,6.67.66,9.76,1.94,3.1,1.28,5.91,3.16,8.28,5.53,2.37,2.37,4.25,5.18,5.53,8.28,1.28,3.1,1.94,6.41,1.94,9.76s-.66,6.67-1.94,9.76c-1.28,3.1-3.16,5.91-5.53,8.28-2.37,2.37-5.18,4.25-8.28,5.53-3.1,1.28-6.41,1.94-9.76,1.94s-6.67-.66-9.76-1.94c-3.1-1.28-5.91-3.16-8.28-5.53-2.37-2.37-4.25-5.18-5.53-8.28-1.28-3.1-1.94-6.41-1.94-9.76s.66-6.67,1.94-9.76,3.16-5.91,5.53-8.28c2.37-2.37,5.18-4.25,8.28-5.53,3.1-1.28,6.41-1.94,9.76-1.94"/>
          </g>
          <path class="cls-5" d="M332.13,85.34c0-8.38-1.65-16.67-4.85-24.41-3.21-7.74-7.9-14.77-13.83-20.69-5.92-5.92-12.95-10.62-20.69-13.83-7.74-3.21-16.03-4.85-24.41-4.85s-16.67,1.65-24.41,4.85c-7.74,3.21-14.77,7.9-20.69,13.83-5.92,5.92-10.62,12.95-13.83,20.69-3.21,7.74-4.85,16.03-4.85,24.41s1.65,16.67,4.85,24.41c3.21,7.74,7.9,14.77,13.83,20.69s12.95,10.62,20.69,13.83c7.74,3.21,16.03,4.85,24.41,4.85s16.67-1.65,24.41-4.85c7.74-3.21,14.77-7.9,20.69-13.83,5.92-5.92,10.62-12.95,13.83-20.69,3.21-7.74,4.85-16.03,4.85-24.41"/>
        </g>
        <g>
          <g class="cls-42">
            <path class="cls-23" d="M268.35,47.07c5.03,0,10,.99,14.64,2.91,4.64,1.92,8.86,4.74,12.41,8.3,3.55,3.55,6.37,7.77,8.3,12.41s2.91,9.62,2.91,14.64-.99,10-2.91,14.64c-1.92,4.64-4.74,8.86-8.3,12.41-3.55,3.55-7.77,6.37-12.41,8.3-4.64,1.92-9.62,2.91-14.64,2.91s-10-.99-14.64-2.91c-4.64-1.92-8.86-4.74-12.41-8.3s-6.37-7.77-8.3-12.41c-1.92-4.64-2.91-9.62-2.91-14.64s.99-10,2.91-14.64c1.92-4.64,4.74-8.86,8.3-12.41,3.55-3.55,7.77-6.37,12.41-8.3,4.64-1.92,9.62-2.91,14.64-2.91"/>
          </g>
          <path class="cls-5" d="M332.13,85.34c0-8.38-1.65-16.67-4.85-24.41-3.21-7.74-7.9-14.77-13.83-20.69-5.92-5.92-12.95-10.62-20.69-13.83-7.74-3.21-16.03-4.85-24.41-4.85s-16.67,1.65-24.41,4.85c-7.74,3.21-14.77,7.9-20.69,13.83-5.92,5.92-10.62,12.95-13.83,20.69-3.21,7.74-4.85,16.03-4.85,24.41s1.65,16.67,4.85,24.41c3.21,7.74,7.9,14.77,13.83,20.69s12.95,10.62,20.69,13.83c7.74,3.21,16.03,4.85,24.41,4.85s16.67-1.65,24.41-4.85c7.74-3.21,14.77-7.9,20.69-13.83,5.92-5.92,10.62-12.95,13.83-20.69,3.21-7.74,4.85-16.03,4.85-24.41"/>
        </g>
        <g>
          <g class="cls-39">
            <path class="cls-23" d="M268.35,34.31c6.7,0,13.34,1.32,19.53,3.88,6.19,2.56,11.82,6.32,16.55,11.06,4.74,4.74,8.5,10.36,11.06,16.55,2.56,6.19,3.88,12.83,3.88,19.53s-1.32,13.34-3.88,19.53c-2.56,6.19-6.32,11.82-11.06,16.55-4.74,4.74-10.36,8.5-16.55,11.06-6.19,2.56-12.83,3.88-19.53,3.88s-13.34-1.32-19.53-3.88c-6.19-2.56-11.82-6.32-16.55-11.06-4.74-4.74-8.5-10.36-11.06-16.55-2.56-6.19-3.88-12.83-3.88-19.53s1.32-13.34,3.88-19.53c2.56-6.19,6.32-11.82,11.06-16.55,4.74-4.74,10.36-8.5,16.55-11.06,6.19-2.56,12.83-3.88,19.53-3.88"/>
          </g>
          <path class="cls-5" d="M332.13,85.34c0-8.38-1.65-16.67-4.85-24.41-3.21-7.74-7.9-14.77-13.83-20.69-5.92-5.92-12.95-10.62-20.69-13.83-7.74-3.21-16.03-4.85-24.41-4.85s-16.67,1.65-24.41,4.85c-7.74,3.21-14.77,7.9-20.69,13.83-5.92,5.92-10.62,12.95-13.83,20.69-3.21,7.74-4.85,16.03-4.85,24.41s1.65,16.67,4.85,24.41c3.21,7.74,7.9,14.77,13.83,20.69s12.95,10.62,20.69,13.83c7.74,3.21,16.03,4.85,24.41,4.85s16.67-1.65,24.41-4.85c7.74-3.21,14.77-7.9,20.69-13.83,5.92-5.92,10.62-12.95,13.83-20.69,3.21-7.74,4.85-16.03,4.85-24.41"/>
        </g>
        <g>
          <g class="cls-46">
            <path class="cls-5" d="M268.35,21.56c8.38,0,16.67,1.65,24.41,4.85,7.74,3.21,14.77,7.9,20.69,13.83,5.92,5.92,10.62,12.95,13.83,20.69,3.21,7.74,4.85,16.03,4.85,24.41s-1.65,16.67-4.85,24.41c-3.21,7.74-7.9,14.77-13.83,20.69-5.92,5.92-12.95,10.62-20.69,13.83-7.74,3.21-16.03,4.85-24.41,4.85s-16.67-1.65-24.41-4.85c-7.74-3.21-14.77-7.9-20.69-13.83s-10.62-12.95-13.83-20.69c-3.21-7.74-4.85-16.03-4.85-24.41s1.65-16.67,4.85-24.41c3.21-7.74,7.9-14.77,13.83-20.69,5.92-5.92,12.95-10.62,20.69-13.83,7.74-3.21,16.03-4.85,24.41-4.85"/>
          </g>
          <path class="cls-5" d="M332.13,85.34c0-8.38-1.65-16.67-4.85-24.41-3.21-7.74-7.9-14.77-13.83-20.69-5.92-5.92-12.95-10.62-20.69-13.83-7.74-3.21-16.03-4.85-24.41-4.85s-16.67,1.65-24.41,4.85c-7.74,3.21-14.77,7.9-20.69,13.83-5.92,5.92-10.62,12.95-13.83,20.69-3.21,7.74-4.85,16.03-4.85,24.41s1.65,16.67,4.85,24.41c3.21,7.74,7.9,14.77,13.83,20.69s12.95,10.62,20.69,13.83c7.74,3.21,16.03,4.85,24.41,4.85s16.67-1.65,24.41-4.85c7.74-3.21,14.77-7.9,20.69-13.83,5.92-5.92,10.62-12.95,13.83-20.69,3.21-7.74,4.85-16.03,4.85-24.41"/>
        </g>
        <path class="cls-5" d="M268.35,21.56c-8.38,0-16.67,1.65-24.41,4.85-7.74,3.21-14.77,7.9-20.69,13.83-5.92,5.92-10.62,12.95-13.83,20.69-3.21,7.74-4.85,16.03-4.85,24.41s1.65,16.67,4.85,24.41c3.21,7.74,7.9,14.77,13.83,20.69s12.95,10.62,20.69,13.83c7.74,3.21,16.03,4.85,24.41,4.85s16.67-1.65,24.41-4.85c7.74-3.21,14.77-7.9,20.69-13.83,5.92-5.92,10.62-12.95,13.83-20.69,3.21-7.74,4.85-16.03,4.85-24.41s-1.65-16.67-4.85-24.41c-3.21-7.74-7.9-14.77-13.83-20.69-5.92-5.92-12.95-10.62-20.69-13.83-7.74-3.21-16.03-4.85-24.41-4.85"/>
        <text class="cls-30" transform="translate(249.03 122.02)"><tspan x="0" y="0">30</tspan></text>
        <text class="cls-30" transform="translate(295.32 63.64)"><tspan x="0" y="0">30</tspan></text>
        <text class="cls-30" transform="translate(302.79 95.79)"><tspan x="0" y="0">80</tspan></text>
        <g>
          <g class="cls-44">
            <polygon class="cls-14" points="268.35 42.99 308.64 53.2 323.1 97.83 282.19 114.07 246.21 131.31 226.34 94.92 227.56 52.81 268.35 42.99"/>
          </g>
          <path class="cls-5" d="M332.13,85.34c0-8.38-1.65-16.67-4.85-24.41-3.21-7.74-7.9-14.77-13.83-20.69-5.92-5.92-12.95-10.62-20.69-13.83-7.74-3.21-16.03-4.85-24.41-4.85s-16.67,1.65-24.41,4.85c-7.74,3.21-14.77,7.9-20.69,13.83-5.92,5.92-10.62,12.95-13.83,20.69-3.21,7.74-4.85,16.03-4.85,24.41s1.65,16.67,4.85,24.41c3.21,7.74,7.9,14.77,13.83,20.69s12.95,10.62,20.69,13.83c7.74,3.21,16.03,4.85,24.41,4.85s16.67-1.65,24.41-4.85c7.74-3.21,14.77-7.9,20.69-13.83,5.92-5.92,10.62-12.95,13.83-20.69,3.21-7.74,4.85-16.03,4.85-24.41"/>
        </g>
        <g>
          <g class="cls-45">
            <polygon class="cls-18" points="268.35 46.56 306.13 55.21 324.11 98.06 279.42 108.32 246.21 131.31 229.28 94.25 226.64 52.08 268.35 46.56"/>
          </g>
          <path class="cls-5" d="M332.13,85.34c0-8.38-1.65-16.67-4.85-24.41-3.21-7.74-7.9-14.77-13.83-20.69-5.92-5.92-12.95-10.62-20.69-13.83-7.74-3.21-16.03-4.85-24.41-4.85s-16.67,1.65-24.41,4.85c-7.74,3.21-14.77,7.9-20.69,13.83-5.92,5.92-10.62,12.95-13.83,20.69-3.21,7.74-4.85,16.03-4.85,24.41s1.65,16.67,4.85,24.41c3.21,7.74,7.9,14.77,13.83,20.69s12.95,10.62,20.69,13.83c7.74,3.21,16.03,4.85,24.41,4.85s16.67-1.65,24.41-4.85c7.74-3.21,14.77-7.9,20.69-13.83,5.92-5.92,10.62-12.95,13.83-20.69,3.21-7.74,4.85-16.03,4.85-24.41"/>
        </g>
        <g>
          <g class="cls-43">
            <polyline class="cls-17" points="268.35 46.56 306.13 55.21 324.11 98.06 279.42 108.32 246.21 131.31 229.28 94.25 226.64 52.08 268.35 46.56"/>
          </g>
          <path class="cls-5" d="M332.13,85.34c0-8.38-1.65-16.67-4.85-24.41-3.21-7.74-7.9-14.77-13.83-20.69-5.92-5.92-12.95-10.62-20.69-13.83-7.74-3.21-16.03-4.85-24.41-4.85s-16.67,1.65-24.41,4.85c-7.74,3.21-14.77,7.9-20.69,13.83-5.92,5.92-10.62,12.95-13.83,20.69-3.21,7.74-4.85,16.03-4.85,24.41s1.65,16.67,4.85,24.41c3.21,7.74,7.9,14.77,13.83,20.69s12.95,10.62,20.69,13.83c7.74,3.21,16.03,4.85,24.41,4.85s16.67-1.65,24.41-4.85c7.74-3.21,14.77-7.9,20.69-13.83,5.92-5.92,10.62-12.95,13.83-20.69,3.21-7.74,4.85-16.03,4.85-24.41"/>
        </g>
        <g>
          <g class="cls-40">
            <polyline class="cls-9" points="268.35 42.99 308.64 53.2 323.1 97.83 282.19 114.07 246.21 131.31 226.34 94.92 227.56 52.81 268.35 42.99"/>
          </g>
          <path class="cls-5" d="M332.13,85.34c0-8.38-1.65-16.67-4.85-24.41-3.21-7.74-7.9-14.77-13.83-20.69-5.92-5.92-12.95-10.62-20.69-13.83-7.74-3.21-16.03-4.85-24.41-4.85s-16.67,1.65-24.41,4.85c-7.74,3.21-14.77,7.9-20.69,13.83-5.92,5.92-10.62,12.95-13.83,20.69-3.21,7.74-4.85,16.03-4.85,24.41s1.65,16.67,4.85,24.41c3.21,7.74,7.9,14.77,13.83,20.69s12.95,10.62,20.69,13.83c7.74,3.21,16.03,4.85,24.41,4.85s16.67-1.65,24.41-4.85c7.74-3.21,14.77-7.9,20.69-13.83,5.92-5.92,10.62-12.95,13.83-20.69,3.21-7.74,4.85-16.03,4.85-24.41"/>
        </g>
        <g>
          <g class="cls-37">
            <polyline class="cls-22" points="268.35 39.92 313.68 49.19 323.97 98.03 284.96 119.81 242.52 138.97 221.44 96.04 227.26 52.57 268.35 39.92"/>
          </g>
          <path class="cls-5" d="M332.13,85.34c0-8.38-1.65-16.67-4.85-24.41-3.21-7.74-7.9-14.77-13.83-20.69-5.92-5.92-12.95-10.62-20.69-13.83-7.74-3.21-16.03-4.85-24.41-4.85s-16.67,1.65-24.41,4.85c-7.74,3.21-14.77,7.9-20.69,13.83-5.92,5.92-10.62,12.95-13.83,20.69-3.21,7.74-4.85,16.03-4.85,24.41s1.65,16.67,4.85,24.41c3.21,7.74,7.9,14.77,13.83,20.69s12.95,10.62,20.69,13.83c7.74,3.21,16.03,4.85,24.41,4.85s16.67-1.65,24.41-4.85c7.74-3.21,14.77-7.9,20.69-13.83,5.92-5.92,10.62-12.95,13.83-20.69,3.21-7.74,4.85-16.03,4.85-24.41"/>
        </g>
        <text class="cls-30" transform="translate(281.95 122.02)"><tspan x="0" y="0">80</tspan></text>
        <text class="cls-30" transform="translate(313.55 49.59)"><tspan class="cls-130" x="0" y="0">5</tspan><tspan x="3.18" y="0">0</tspan></text>
        <text class="cls-30" transform="translate(324.82 100.58)"><tspan x="0" y="0">90</tspan></text>
        <text class="cls-30" transform="translate(238.87 142.56)"><tspan class="cls-130" x="0" y="0">5</tspan><tspan x="3.18" y="0">0</tspan></text>
        <text class="cls-30" transform="translate(206.17 100.52)"><tspan x="0" y="0">90</tspan></text>
        <text class="cls-30" transform="translate(291.7 142.62)"><tspan x="0" y="0">90</tspan></text>
        <text class="cls-30" transform="translate(235.73 63.64)"><tspan x="0" y="0">90</tspan></text>
        <text class="cls-30" transform="translate(263.75 25.88)"><tspan x="0" y="0">100</tspan></text>
        <text class="cls-30" transform="translate(217.28 49.59)"><tspan x="0" y="0">100</tspan></text>
        <text class="cls-30" transform="translate(227.79 95.74)"><tspan x="0" y="0">80</tspan></text>
        <text class="cls-30" transform="translate(265.34 48.82)"><tspan x="0" y="0">90</tspan></text>
      </g>
      <g>
        <g>
          <g class="cls-41">
            <g>
              <polygon class="cls-35" points="438.43 33.8 478.32 53.52 487.01 96.42 457.8 125.56 412.6 138.97 384.68 97.6 399.46 54.25 438.43 33.8"/>
              <polygon class="cls-12" points="438.43 33.8 478.32 53.52 487.01 96.42 457.8 125.56 412.6 138.97 384.68 97.6 399.46 54.25 438.43 33.8"/>
            </g>
          </g>
          <path class="cls-5" d="M502.21,85.34c0-8.38-1.65-16.67-4.85-24.41-3.21-7.74-7.9-14.77-13.83-20.69-5.92-5.92-12.95-10.62-20.69-13.83-7.74-3.21-16.03-4.85-24.41-4.85s-16.67,1.65-24.41,4.85c-7.74,3.21-14.77,7.9-20.69,13.83-5.92,5.92-10.62,12.95-13.83,20.69-3.21,7.74-4.85,16.03-4.85,24.41s1.65,16.67,4.85,24.41c3.21,7.74,7.9,14.77,13.83,20.69,5.92,5.92,12.95,10.62,20.69,13.83,7.74,3.21,16.03,4.85,24.41,4.85s16.67-1.65,24.41-4.85c7.74-3.21,14.77-7.9,20.69-13.83,5.92-5.92,10.62-12.95,13.83-20.69,3.21-7.74,4.85-16.03,4.85-24.41"/>
        </g>
        <g>
          <g class="cls-38">
            <line class="cls-23" x1="438.43" y1="85.34" x2="438.43" y2="21.56"/>
          </g>
          <path class="cls-5" d="M502.21,85.34c0-8.38-1.65-16.67-4.85-24.41-3.21-7.74-7.9-14.77-13.83-20.69-5.92-5.92-12.95-10.62-20.69-13.83-7.74-3.21-16.03-4.85-24.41-4.85s-16.67,1.65-24.41,4.85c-7.74,3.21-14.77,7.9-20.69,13.83-5.92,5.92-10.62,12.95-13.83,20.69-3.21,7.74-4.85,16.03-4.85,24.41s1.65,16.67,4.85,24.41c3.21,7.74,7.9,14.77,13.83,20.69,5.92,5.92,12.95,10.62,20.69,13.83,7.74,3.21,16.03,4.85,24.41,4.85s16.67-1.65,24.41-4.85c7.74-3.21,14.77-7.9,20.69-13.83,5.92-5.92,10.62-12.95,13.83-20.69,3.21-7.74,4.85-16.03,4.85-24.41"/>
        </g>
        <g>
          <g class="cls-64">
            <line class="cls-23" x1="438.43" y1="85.34" x2="488.3" y2="45.57"/>
          </g>
          <path class="cls-5" d="M502.21,85.34c0-8.38-1.65-16.67-4.85-24.41-3.21-7.74-7.9-14.77-13.83-20.69-5.92-5.92-12.95-10.62-20.69-13.83-7.74-3.21-16.03-4.85-24.41-4.85s-16.67,1.65-24.41,4.85c-7.74,3.21-14.77,7.9-20.69,13.83-5.92,5.92-10.62,12.95-13.83,20.69-3.21,7.74-4.85,16.03-4.85,24.41s1.65,16.67,4.85,24.41c3.21,7.74,7.9,14.77,13.83,20.69,5.92,5.92,12.95,10.62,20.69,13.83,7.74,3.21,16.03,4.85,24.41,4.85s16.67-1.65,24.41-4.85c7.74-3.21,14.77-7.9,20.69-13.83,5.92-5.92,10.62-12.95,13.83-20.69,3.21-7.74,4.85-16.03,4.85-24.41"/>
        </g>
        <g>
          <g class="cls-65">
            <line class="cls-23" x1="438.43" y1="85.34" x2="500.61" y2="99.53"/>
          </g>
          <path class="cls-5" d="M502.21,85.34c0-8.38-1.65-16.67-4.85-24.41-3.21-7.74-7.9-14.77-13.83-20.69-5.92-5.92-12.95-10.62-20.69-13.83-7.74-3.21-16.03-4.85-24.41-4.85s-16.67,1.65-24.41,4.85c-7.74,3.21-14.77,7.9-20.69,13.83-5.92,5.92-10.62,12.95-13.83,20.69-3.21,7.74-4.85,16.03-4.85,24.41s1.65,16.67,4.85,24.41c3.21,7.74,7.9,14.77,13.83,20.69,5.92,5.92,12.95,10.62,20.69,13.83,7.74,3.21,16.03,4.85,24.41,4.85s16.67-1.65,24.41-4.85c7.74-3.21,14.77-7.9,20.69-13.83,5.92-5.92,10.62-12.95,13.83-20.69,3.21-7.74,4.85-16.03,4.85-24.41"/>
        </g>
        <g>
          <g class="cls-66">
            <line class="cls-23" x1="438.43" y1="85.34" x2="466.1" y2="142.8"/>
          </g>
          <path class="cls-5" d="M502.21,85.34c0-8.38-1.65-16.67-4.85-24.41-3.21-7.74-7.9-14.77-13.83-20.69-5.92-5.92-12.95-10.62-20.69-13.83-7.74-3.21-16.03-4.85-24.41-4.85s-16.67,1.65-24.41,4.85c-7.74,3.21-14.77,7.9-20.69,13.83-5.92,5.92-10.62,12.95-13.83,20.69-3.21,7.74-4.85,16.03-4.85,24.41s1.65,16.67,4.85,24.41c3.21,7.74,7.9,14.77,13.83,20.69,5.92,5.92,12.95,10.62,20.69,13.83,7.74,3.21,16.03,4.85,24.41,4.85s16.67-1.65,24.41-4.85c7.74-3.21,14.77-7.9,20.69-13.83,5.92-5.92,10.62-12.95,13.83-20.69,3.21-7.74,4.85-16.03,4.85-24.41"/>
        </g>
        <g>
          <g class="cls-67">
            <line class="cls-23" x1="438.43" y1="85.34" x2="410.76" y2="142.8"/>
          </g>
          <path class="cls-5" d="M502.21,85.34c0-8.38-1.65-16.67-4.85-24.41-3.21-7.74-7.9-14.77-13.83-20.69-5.92-5.92-12.95-10.62-20.69-13.83-7.74-3.21-16.03-4.85-24.41-4.85s-16.67,1.65-24.41,4.85c-7.74,3.21-14.77,7.9-20.69,13.83-5.92,5.92-10.62,12.95-13.83,20.69-3.21,7.74-4.85,16.03-4.85,24.41s1.65,16.67,4.85,24.41c3.21,7.74,7.9,14.77,13.83,20.69,5.92,5.92,12.95,10.62,20.69,13.83,7.74,3.21,16.03,4.85,24.41,4.85s16.67-1.65,24.41-4.85c7.74-3.21,14.77-7.9,20.69-13.83,5.92-5.92,10.62-12.95,13.83-20.69,3.21-7.74,4.85-16.03,4.85-24.41"/>
        </g>
        <g>
          <g class="cls-68">
            <line class="cls-23" x1="438.43" y1="85.34" x2="376.25" y2="99.53"/>
          </g>
          <path class="cls-5" d="M502.21,85.34c0-8.38-1.65-16.67-4.85-24.41-3.21-7.74-7.9-14.77-13.83-20.69-5.92-5.92-12.95-10.62-20.69-13.83-7.74-3.21-16.03-4.85-24.41-4.85s-16.67,1.65-24.41,4.85c-7.74,3.21-14.77,7.9-20.69,13.83-5.92,5.92-10.62,12.95-13.83,20.69-3.21,7.74-4.85,16.03-4.85,24.41s1.65,16.67,4.85,24.41c3.21,7.74,7.9,14.77,13.83,20.69,5.92,5.92,12.95,10.62,20.69,13.83,7.74,3.21,16.03,4.85,24.41,4.85s16.67-1.65,24.41-4.85c7.74-3.21,14.77-7.9,20.69-13.83,5.92-5.92,10.62-12.95,13.83-20.69,3.21-7.74,4.85-16.03,4.85-24.41"/>
        </g>
        <g>
          <g class="cls-69">
            <line class="cls-23" x1="438.43" y1="85.34" x2="388.57" y2="45.57"/>
          </g>
          <path class="cls-5" d="M502.21,85.34c0-8.38-1.65-16.67-4.85-24.41-3.21-7.74-7.9-14.77-13.83-20.69-5.92-5.92-12.95-10.62-20.69-13.83-7.74-3.21-16.03-4.85-24.41-4.85s-16.67,1.65-24.41,4.85c-7.74,3.21-14.77,7.9-20.69,13.83-5.92,5.92-10.62,12.95-13.83,20.69-3.21,7.74-4.85,16.03-4.85,24.41s1.65,16.67,4.85,24.41c3.21,7.74,7.9,14.77,13.83,20.69,5.92,5.92,12.95,10.62,20.69,13.83,7.74,3.21,16.03,4.85,24.41,4.85s16.67-1.65,24.41-4.85c7.74-3.21,14.77-7.9,20.69-13.83,5.92-5.92,10.62-12.95,13.83-20.69,3.21-7.74,4.85-16.03,4.85-24.41"/>
        </g>
        <g>
          <g class="cls-62">
            <path class="cls-23" d="M438.43,72.58c1.68,0,3.33.33,4.88.97,1.55.64,2.95,1.58,4.14,2.77s2.12,2.59,2.77,4.14c.64,1.55.97,3.21.97,4.88s-.33,3.33-.97,4.88c-.64,1.55-1.58,2.95-2.77,4.14s-2.59,2.12-4.14,2.77c-1.55.64-3.21.97-4.88.97s-3.33-.33-4.88-.97c-1.55-.64-2.95-1.58-4.14-2.77-1.18-1.18-2.12-2.59-2.77-4.14-.64-1.55-.97-3.21-.97-4.88s.33-3.33.97-4.88c.64-1.55,1.58-2.95,2.77-4.14,1.18-1.18,2.59-2.12,4.14-2.77,1.55-.64,3.21-.97,4.88-.97"/>
          </g>
          <path class="cls-5" d="M502.21,85.34c0-8.38-1.65-16.67-4.85-24.41-3.21-7.74-7.9-14.77-13.83-20.69-5.92-5.92-12.95-10.62-20.69-13.83-7.74-3.21-16.03-4.85-24.41-4.85s-16.67,1.65-24.41,4.85c-7.74,3.21-14.77,7.9-20.69,13.83-5.92,5.92-10.62,12.95-13.83,20.69-3.21,7.74-4.85,16.03-4.85,24.41s1.65,16.67,4.85,24.41c3.21,7.74,7.9,14.77,13.83,20.69,5.92,5.92,12.95,10.62,20.69,13.83,7.74,3.21,16.03,4.85,24.41,4.85s16.67-1.65,24.41-4.85c7.74-3.21,14.77-7.9,20.69-13.83,5.92-5.92,10.62-12.95,13.83-20.69,3.21-7.74,4.85-16.03,4.85-24.41"/>
        </g>
        <g>
          <g class="cls-60">
            <path class="cls-23" d="M438.43,59.82c3.35,0,6.67.66,9.76,1.94,3.1,1.28,5.91,3.16,8.28,5.53,2.37,2.37,4.25,5.18,5.53,8.28,1.28,3.1,1.94,6.41,1.94,9.76s-.66,6.67-1.94,9.76c-1.28,3.1-3.16,5.91-5.53,8.28-2.37,2.37-5.18,4.25-8.28,5.53-3.1,1.28-6.41,1.94-9.76,1.94s-6.67-.66-9.76-1.94c-3.1-1.28-5.91-3.16-8.28-5.53-2.37-2.37-4.25-5.18-5.53-8.28s-1.94-6.41-1.94-9.76.66-6.67,1.94-9.76,3.16-5.91,5.53-8.28,5.18-4.25,8.28-5.53c3.1-1.28,6.41-1.94,9.76-1.94"/>
          </g>
          <path class="cls-5" d="M502.21,85.34c0-8.38-1.65-16.67-4.85-24.41-3.21-7.74-7.9-14.77-13.83-20.69-5.92-5.92-12.95-10.62-20.69-13.83-7.74-3.21-16.03-4.85-24.41-4.85s-16.67,1.65-24.41,4.85c-7.74,3.21-14.77,7.9-20.69,13.83-5.92,5.92-10.62,12.95-13.83,20.69-3.21,7.74-4.85,16.03-4.85,24.41s1.65,16.67,4.85,24.41c3.21,7.74,7.9,14.77,13.83,20.69,5.92,5.92,12.95,10.62,20.69,13.83,7.74,3.21,16.03,4.85,24.41,4.85s16.67-1.65,24.41-4.85c7.74-3.21,14.77-7.9,20.69-13.83,5.92-5.92,10.62-12.95,13.83-20.69,3.21-7.74,4.85-16.03,4.85-24.41"/>
        </g>
        <g>
          <g class="cls-63">
            <path class="cls-23" d="M438.43,47.07c5.03,0,10,.99,14.64,2.91,4.64,1.92,8.86,4.74,12.41,8.3,3.55,3.55,6.37,7.77,8.3,12.41,1.92,4.64,2.91,9.62,2.91,14.64s-.99,10-2.91,14.64c-1.92,4.64-4.74,8.86-8.3,12.41-3.55,3.55-7.77,6.37-12.41,8.3-4.64,1.92-9.62,2.91-14.64,2.91s-10-.99-14.64-2.91c-4.64-1.92-8.86-4.74-12.41-8.3s-6.37-7.77-8.3-12.41c-1.92-4.64-2.91-9.62-2.91-14.64s.99-10,2.91-14.64c1.92-4.64,4.74-8.86,8.3-12.41,3.55-3.55,7.77-6.37,12.41-8.3,4.64-1.92,9.62-2.91,14.64-2.91"/>
          </g>
          <path class="cls-5" d="M502.21,85.34c0-8.38-1.65-16.67-4.85-24.41-3.21-7.74-7.9-14.77-13.83-20.69-5.92-5.92-12.95-10.62-20.69-13.83-7.74-3.21-16.03-4.85-24.41-4.85s-16.67,1.65-24.41,4.85c-7.74,3.21-14.77,7.9-20.69,13.83-5.92,5.92-10.62,12.95-13.83,20.69-3.21,7.74-4.85,16.03-4.85,24.41s1.65,16.67,4.85,24.41c3.21,7.74,7.9,14.77,13.83,20.69,5.92,5.92,12.95,10.62,20.69,13.83,7.74,3.21,16.03,4.85,24.41,4.85s16.67-1.65,24.41-4.85c7.74-3.21,14.77-7.9,20.69-13.83,5.92-5.92,10.62-12.95,13.83-20.69,3.21-7.74,4.85-16.03,4.85-24.41"/>
        </g>
        <g>
          <g class="cls-61">
            <path class="cls-5" d="M438.43,21.56c8.38,0,16.67,1.65,24.41,4.85,7.74,3.21,14.77,7.9,20.69,13.83,5.92,5.92,10.62,12.95,13.83,20.69,3.21,7.74,4.85,16.03,4.85,24.41s-1.65,16.67-4.85,24.41c-3.21,7.74-7.9,14.77-13.83,20.69-5.92,5.92-12.95,10.62-20.69,13.83-7.74,3.21-16.03,4.85-24.41,4.85s-16.67-1.65-24.41-4.85c-7.74-3.21-14.77-7.9-20.69-13.83-5.92-5.92-10.62-12.95-13.83-20.69-3.21-7.74-4.85-16.03-4.85-24.41s1.65-16.67,4.85-24.41c3.21-7.74,7.9-14.77,13.83-20.69,5.92-5.92,12.95-10.62,20.69-13.83,7.74-3.21,16.03-4.85,24.41-4.85"/>
          </g>
          <path class="cls-5" d="M502.21,85.34c0-8.38-1.65-16.67-4.85-24.41-3.21-7.74-7.9-14.77-13.83-20.69-5.92-5.92-12.95-10.62-20.69-13.83-7.74-3.21-16.03-4.85-24.41-4.85s-16.67,1.65-24.41,4.85c-7.74,3.21-14.77,7.9-20.69,13.83-5.92,5.92-10.62,12.95-13.83,20.69-3.21,7.74-4.85,16.03-4.85,24.41s1.65,16.67,4.85,24.41c3.21,7.74,7.9,14.77,13.83,20.69,5.92,5.92,12.95,10.62,20.69,13.83,7.74,3.21,16.03,4.85,24.41,4.85s16.67-1.65,24.41-4.85c7.74-3.21,14.77-7.9,20.69-13.83,5.92-5.92,10.62-12.95,13.83-20.69,3.21-7.74,4.85-16.03,4.85-24.41"/>
        </g>
        <path class="cls-5" d="M438.43,21.56c-8.38,0-16.67,1.65-24.41,4.85-7.74,3.21-14.77,7.9-20.69,13.83-5.92,5.92-10.62,12.95-13.83,20.69-3.21,7.74-4.85,16.03-4.85,24.41s1.65,16.67,4.85,24.41c3.21,7.74,7.9,14.77,13.83,20.69,5.92,5.92,12.95,10.62,20.69,13.83,7.74,3.21,16.03,4.85,24.41,4.85s16.67-1.65,24.41-4.85c7.74-3.21,14.77-7.9,20.69-13.83,5.92-5.92,10.62-12.95,13.83-20.69,3.21-7.74,4.85-16.03,4.85-24.41s-1.65-16.67-4.85-24.41c-3.21-7.74-7.9-14.77-13.83-20.69-5.92-5.92-12.95-10.62-20.69-13.83-7.74-3.21-16.03-4.85-24.41-4.85"/>
        <g>
          <g class="cls-56">
            <polygon class="cls-14" points="438.43 36.35 474.29 56.74 492.15 97.6 452.27 114.07 416.29 131.31 384.68 97.6 399.6 54.37 438.43 36.35"/>
          </g>
          <path class="cls-5" d="M502.21,85.34c0-8.38-1.65-16.67-4.85-24.41-3.21-7.74-7.9-14.77-13.83-20.69-5.92-5.92-12.95-10.62-20.69-13.83-7.74-3.21-16.03-4.85-24.41-4.85s-16.67,1.65-24.41,4.85c-7.74,3.21-14.77,7.9-20.69,13.83-5.92,5.92-10.62,12.95-13.83,20.69-3.21,7.74-4.85,16.03-4.85,24.41s1.65,16.67,4.85,24.41c3.21,7.74,7.9,14.77,13.83,20.69,5.92,5.92,12.95,10.62,20.69,13.83,7.74,3.21,16.03,4.85,24.41,4.85s16.67-1.65,24.41-4.85c7.74-3.21,14.77-7.9,20.69-13.83,5.92-5.92,10.62-12.95,13.83-20.69,3.21-7.74,4.85-16.03,4.85-24.41"/>
        </g>
        <g>
          <g class="cls-50">
            <polygon class="cls-18" points="438.43 38.39 475.8 55.53 486.21 96.24 452.27 114.07 418.13 127.48 388.59 96.71 399.16 54.02 438.43 38.39"/>
          </g>
          <path class="cls-5" d="M502.21,85.34c0-8.38-1.65-16.67-4.85-24.41-3.21-7.74-7.9-14.77-13.83-20.69-5.92-5.92-12.95-10.62-20.69-13.83-7.74-3.21-16.03-4.85-24.41-4.85s-16.67,1.65-24.41,4.85c-7.74,3.21-14.77,7.9-20.69,13.83-5.92,5.92-10.62,12.95-13.83,20.69-3.21,7.74-4.85,16.03-4.85,24.41s1.65,16.67,4.85,24.41c3.21,7.74,7.9,14.77,13.83,20.69,5.92,5.92,12.95,10.62,20.69,13.83,7.74,3.21,16.03,4.85,24.41,4.85s16.67-1.65,24.41-4.85c7.74-3.21,14.77-7.9,20.69-13.83,5.92-5.92,10.62-12.95,13.83-20.69,3.21-7.74,4.85-16.03,4.85-24.41"/>
        </g>
        <g>
          <g class="cls-51">
            <path class="cls-23" d="M438.43,34.31c6.7,0,13.34,1.32,19.53,3.88,6.19,2.56,11.82,6.32,16.55,11.06,4.74,4.74,8.5,10.36,11.06,16.55,2.56,6.19,3.88,12.83,3.88,19.53s-1.32,13.34-3.88,19.53c-2.56,6.19-6.32,11.82-11.06,16.55-4.74,4.74-10.36,8.5-16.55,11.06-6.19,2.56-12.83,3.88-19.53,3.88s-13.34-1.32-19.53-3.88c-6.19-2.56-11.82-6.32-16.55-11.06-4.74-4.74-8.5-10.36-11.06-16.55-2.56-6.19-3.88-12.83-3.88-19.53s1.32-13.34,3.88-19.53c2.56-6.19,6.32-11.82,11.06-16.55,4.74-4.74,10.36-8.5,16.55-11.06,6.19-2.56,12.83-3.88,19.53-3.88"/>
          </g>
          <path class="cls-5" d="M502.21,85.34c0-8.38-1.65-16.67-4.85-24.41-3.21-7.74-7.9-14.77-13.83-20.69-5.92-5.92-12.95-10.62-20.69-13.83-7.74-3.21-16.03-4.85-24.41-4.85s-16.67,1.65-24.41,4.85c-7.74,3.21-14.77,7.9-20.69,13.83-5.92,5.92-10.62,12.95-13.83,20.69-3.21,7.74-4.85,16.03-4.85,24.41s1.65,16.67,4.85,24.41c3.21,7.74,7.9,14.77,13.83,20.69,5.92,5.92,12.95,10.62,20.69,13.83,7.74,3.21,16.03,4.85,24.41,4.85s16.67-1.65,24.41-4.85c7.74-3.21,14.77-7.9,20.69-13.83,5.92-5.92,10.62-12.95,13.83-20.69,3.21-7.74,4.85-16.03,4.85-24.41"/>
        </g>
        <g>
          <g class="cls-52">
            <polyline class="cls-17" points="438.43 38.39 475.8 55.53 486.21 96.24 452.27 114.07 418.13 127.48 388.59 96.71 399.16 54.02 438.43 38.39"/>
          </g>
          <path class="cls-5" d="M502.21,85.34c0-8.38-1.65-16.67-4.85-24.41-3.21-7.74-7.9-14.77-13.83-20.69-5.92-5.92-12.95-10.62-20.69-13.83-7.74-3.21-16.03-4.85-24.41-4.85s-16.67,1.65-24.41,4.85c-7.74,3.21-14.77,7.9-20.69,13.83-5.92,5.92-10.62,12.95-13.83,20.69-3.21,7.74-4.85,16.03-4.85,24.41s1.65,16.67,4.85,24.41c3.21,7.74,7.9,14.77,13.83,20.69,5.92,5.92,12.95,10.62,20.69,13.83,7.74,3.21,16.03,4.85,24.41,4.85s16.67-1.65,24.41-4.85c7.74-3.21,14.77-7.9,20.69-13.83,5.92-5.92,10.62-12.95,13.83-20.69,3.21-7.74,4.85-16.03,4.85-24.41"/>
        </g>
        <g>
          <g class="cls-53">
            <polyline class="cls-9" points="438.43 36.35 474.29 56.74 492.15 97.6 452.27 114.07 416.29 131.31 384.68 97.6 399.6 54.37 438.43 36.35"/>
          </g>
          <path class="cls-5" d="M502.21,85.34c0-8.38-1.65-16.67-4.85-24.41-3.21-7.74-7.9-14.77-13.83-20.69-5.92-5.92-12.95-10.62-20.69-13.83-7.74-3.21-16.03-4.85-24.41-4.85s-16.67,1.65-24.41,4.85c-7.74,3.21-14.77,7.9-20.69,13.83-5.92,5.92-10.62,12.95-13.83,20.69-3.21,7.74-4.85,16.03-4.85,24.41s1.65,16.67,4.85,24.41c3.21,7.74,7.9,14.77,13.83,20.69,5.92,5.92,12.95,10.62,20.69,13.83,7.74,3.21,16.03,4.85,24.41,4.85s16.67-1.65,24.41-4.85c7.74-3.21,14.77-7.9,20.69-13.83,5.92-5.92,10.62-12.95,13.83-20.69,3.21-7.74,4.85-16.03,4.85-24.41"/>
        </g>
        <g>
          <g class="cls-54">
            <polyline class="cls-22" points="438.43 33.8 478.32 53.52 487.01 96.42 457.8 125.56 412.6 138.97 384.68 97.6 399.46 54.25 438.43 33.8"/>
          </g>
          <path class="cls-5" d="M502.21,85.34c0-8.38-1.65-16.67-4.85-24.41-3.21-7.74-7.9-14.77-13.83-20.69-5.92-5.92-12.95-10.62-20.69-13.83-7.74-3.21-16.03-4.85-24.41-4.85s-16.67,1.65-24.41,4.85c-7.74,3.21-14.77,7.9-20.69,13.83-5.92,5.92-10.62,12.95-13.83,20.69-3.21,7.74-4.85,16.03-4.85,24.41s1.65,16.67,4.85,24.41c3.21,7.74,7.9,14.77,13.83,20.69,5.92,5.92,12.95,10.62,20.69,13.83,7.74,3.21,16.03,4.85,24.41,4.85s16.67-1.65,24.41-4.85c7.74-3.21,14.77-7.9,20.69-13.83,5.92-5.92,10.62-12.95,13.83-20.69,3.21-7.74,4.85-16.03,4.85-24.41"/>
        </g>
        <text class="cls-30" transform="translate(465.35 63.69)"><tspan x="0" y="0">40</tspan></text>
        <text class="cls-30" transform="translate(418.65 122.02)"><tspan class="cls-130" x="0" y="0">5</tspan><tspan x="3.18" y="0">0</tspan></text>
        <text class="cls-30" transform="translate(482.83 49.59)"><tspan x="0" y="0">60</tspan></text>
        <text class="cls-30" transform="translate(398.09 95.79)"><tspan x="0" y="0">80</tspan></text>
        <text class="cls-30" transform="translate(472.84 95.84)"><tspan class="cls-123" x="0" y="0">8</tspan><tspan class="cls-91" x="3.26" y="0">5</tspan></text>
        <text class="cls-30" transform="translate(376.25 100.63)"><tspan x="0" y="0">90</tspan></text>
        <text class="cls-30" transform="translate(435.18 48.95)"><tspan x="0" y="0">90</tspan></text>
        <text class="cls-30" transform="translate(452.07 122.02)"><tspan x="0" y="0">90</tspan></text>
        <text class="cls-30" transform="translate(405.58 63.64)"><tspan x="0" y="0">90</tspan></text>
        <text class="cls-30" transform="translate(494.86 100.68)"><tspan class="cls-109" x="0" y="0">9</tspan><tspan x="3.06" y="0">5</tspan></text>
        <text class="cls-30" transform="translate(433.79 25.88)"><tspan x="0" y="0">100</tspan></text>
        <text class="cls-30" transform="translate(459.58 142.56)"><tspan x="0" y="0">100</tspan></text>
        <text class="cls-30" transform="translate(387.22 49.65)"><tspan x="0" y="0">100</tspan></text>
        <text class="cls-30" transform="translate(409.13 142.56)"><tspan class="cls-109" x="0" y="0">7</tspan><tspan class="cls-91" x="2.82" y="0">0</tspan></text>
      </g>
      <text class="cls-29" transform="translate(195.65 43.85)"><tspan class="cls-103" x="0" y="0">G</tspan><tspan class="cls-122" x="5.35" y="0">S</tspan><tspan x="9.34" y="0">M8K</tspan></text>
      <text class="cls-29" transform="translate(365.72 43.85)"><tspan class="cls-103" x="0" y="0">G</tspan><tspan class="cls-122" x="5.35" y="0">S</tspan><tspan x="9.34" y="0">M8K</tspan></text>
      <text class="cls-29" transform="translate(187.42 105.48)"><tspan class="cls-102" x="0" y="0">A</tspan><tspan class="cls-122" x="4.23" y="0">Q</tspan><tspan class="cls-109" x="9.86" y="0">U</tspan><tspan x="14.34" y="0">A</tspan></text>
      <text class="cls-29" transform="translate(356.4 105.53)"><tspan class="cls-102" x="0" y="0">A</tspan><tspan class="cls-122" x="4.23" y="0">Q</tspan><tspan class="cls-109" x="9.86" y="0">U</tspan><tspan x="14.34" y="0">A</tspan></text>
      <text class="cls-29" transform="translate(225.35 148.75)"><tspan x="0" y="0">AIME</tspan></text>
      <text class="cls-29" transform="translate(395.43 148.75)"><tspan x="0" y="0">AIME</tspan></text>
      <text class="cls-29" transform="translate(296.02 148.75)"><tspan x="0" y="0">AMC</tspan></text>
      <text class="cls-29" transform="translate(466.1 148.75)"><tspan x="0" y="0">AMC</tspan></text>
      <text class="cls-29" transform="translate(330.53 105.48)"><tspan x="0" y="0">MM</tspan><tspan class="cls-129" x="11.2" y="0">L</tspan><tspan x="14.56" y="0">U</tspan></text>
      <text class="cls-29" transform="translate(500.61 105.48)"><tspan x="0" y="0">MM</tspan><tspan class="cls-129" x="11.2" y="0">L</tspan><tspan x="14.56" y="0">U</tspan></text>
      <text class="cls-29" transform="translate(318.22 43.85)"><tspan x="0" y="0">G</tspan><tspan class="cls-126" x="5.52" y="0">P</tspan><tspan class="cls-102" x="9.62" y="0">Q</tspan><tspan class="cls-89" x="15.11" y="0">A</tspan></text>
      <text class="cls-29" transform="translate(488.3 43.85)"><tspan x="0" y="0">G</tspan><tspan class="cls-126" x="5.52" y="0">P</tspan><tspan class="cls-102" x="9.62" y="0">Q</tspan><tspan class="cls-89" x="15.11" y="0">A</tspan></text>
      <text class="cls-29" transform="translate(259.25 19.83)"><tspan x="0" y="0">M</tspan><tspan class="cls-115" x="5.6" y="0">A</tspan><tspan x="9.66" y="0">TH</tspan></text>
      <text class="cls-29" transform="translate(429.33 19.83)"><tspan x="0" y="0">M</tspan><tspan class="cls-115" x="5.6" y="0">A</tspan><tspan x="9.66" y="0">TH</tspan></text>
      <text class="cls-31" transform="translate(264.66 8.5)"><tspan x="0" y="0">Gene</tspan><tspan class="cls-111" x="25.21" y="0">r</tspan><tspan class="cls-93" x="28.4" y="0">ali</tspan><tspan class="cls-119" x="39.36" y="0">z</tspan><tspan x="43.79" y="0">a</tspan><tspan class="cls-128" x="50.09" y="0">t</tspan><tspan x="53.86" y="0">ion </tspan><tspan class="cls-101" x="70.38" y="0">t</tspan><tspan x="73.95" y="0">o Mul</tspan><tspan class="cls-128" x="98.57" y="0">t</tspan><tspan x="102.34" y="0">i</tspan><tspan class="cls-119" x="104.67" y="0">-</tspan><tspan class="cls-113" x="109.47" y="0">A</tspan><tspan x="115.89" y="0">gent </tspan><tspan class="cls-105" x="140.04" y="0">S</tspan><tspan class="cls-119" x="145.65" y="0">y</tspan><tspan class="cls-105" x="150.55" y="0">s</tspan><tspan class="cls-104" x="154.96" y="0">t</tspan><tspan x="158.53" y="0">ems</tspan></text>
      <text class="cls-32" transform="translate(255.44 84.65)"><tspan class="cls-36"><tspan x="0" y="0">MAD</tspan></tspan><tspan class="cls-34"><tspan x="-11.76" y="9.6">(</tspan><tspan class="cls-125" x="-9.63" y="9.6">C</tspan><tspan x="-3.71" y="9.6">omp</tspan><tspan class="cls-112" x="13.01" y="9.6">e</tspan><tspan x="17.56" y="9.6">titi</tspan><tspan class="cls-109" x="26.86" y="9.6">v</tspan><tspan x="30.78" y="9.6">e)</tspan></tspan></text>
      <text class="cls-32" transform="translate(416.64 84.04)"><tspan class="cls-36"><tspan class="cls-125" x="0" y="0">A</tspan><tspan x="7.5" y="0">u</tspan><tspan class="cls-118" x="14.2" y="0">t</tspan><tspan x="18.35" y="0">oGen</tspan></tspan><tspan class="cls-34"><tspan x="0" y="9.6">(</tspan><tspan class="cls-125" x="2.13" y="9.6">C</tspan><tspan x="8.05" y="9.6">oope</tspan><tspan class="cls-120" x="27.5" y="9.6">r</tspan><tspan x="29.78" y="9.6">ati</tspan><tspan class="cls-106" x="39.51" y="9.6">v</tspan><tspan x="43.43" y="9.6">e)</tspan></tspan></text>
      <g>
        <g>
          <g class="cls-57">
            <g>
              <polygon class="cls-12" points="55.86 36.43 109.59 41.19 142.1 85.34 107.54 125.93 61 125.35 33.01 85.34 55.86 36.43"/>
              <polygon class="cls-35" points="55.86 36.43 109.59 41.19 142.1 85.34 107.54 125.93 61 125.35 33.01 85.34 55.86 36.43"/>
            </g>
          </g>
          <g class="cls-58">
            <polygon class="cls-18" points="60.53 44.51 104.06 50.76 124.66 85.34 92.95 100.67 71.34 107.43 41.85 85.34 60.53 44.51"/>
          </g>
          <g class="cls-59">
            <polygon class="cls-14" points="59.57 42.85 109.1 42.03 111.6 85.34 92.98 100.72 68.22 112.84 84.1 85.34 59.57 42.85"/>
          </g>
          <g class="cls-55">
            <line class="cls-23" x1="84.1" y1="85.34" x2="52.21" y2="30.1"/>
          </g>
          <g class="cls-76">
            <line class="cls-23" x1="84.1" y1="85.34" x2="115.99" y2="30.1"/>
          </g>
          <g class="cls-70">
            <line class="cls-23" x1="84.1" y1="85.34" x2="147.88" y2="85.34"/>
          </g>
          <g class="cls-71">
            <line class="cls-23" x1="84.1" y1="85.34" x2="115.99" y2="140.57"/>
          </g>
          <g class="cls-72">
            <line class="cls-23" x1="84.1" y1="85.34" x2="52.21" y2="140.57"/>
          </g>
          <g class="cls-73">
            <line class="cls-23" x1="84.1" y1="85.34" x2="20.32" y2="85.34"/>
          </g>
          <g class="cls-74">
            <path class="cls-23" d="M77.72,74.29c1.45-.84,3.05-1.38,4.71-1.6,1.66-.22,3.35-.11,4.97.33s3.13,1.18,4.46,2.2c1.33,1.02,2.44,2.29,3.28,3.74s1.38,3.05,1.6,4.71c.22,1.66.11,3.35-.33,4.97s-1.18,3.13-2.2,4.46c-1.02,1.33-2.29,2.44-3.74,3.28s-3.05,1.38-4.71,1.6c-1.66.22-3.35.11-4.97-.33s-3.13-1.18-4.46-2.2c-1.33-1.02-2.44-2.29-3.28-3.74s-1.38-3.05-1.6-4.71c-.22-1.66-.11-3.35.33-4.97s1.18-3.13,2.2-4.46c1.02-1.33,2.29-2.44,3.74-3.28"/>
          </g>
          <g class="cls-77">
            <path class="cls-23" d="M71.34,63.24c2.9-1.68,6.1-2.76,9.43-3.2,3.32-.44,6.7-.22,9.93.65,3.24.87,6.27,2.36,8.93,4.4,2.66,2.04,4.89,4.58,6.56,7.48s2.76,6.1,3.2,9.43c.44,3.32.22,6.7-.65,9.93-.87,3.24-2.36,6.27-4.4,8.93-2.04,2.66-4.58,4.89-7.48,6.56s-6.1,2.76-9.43,3.2c-3.32.44-6.7.22-9.93-.65-3.24-.87-6.27-2.36-8.93-4.4-2.66-2.04-4.89-4.58-6.56-7.48s-2.76-6.1-3.2-9.43c-.44-3.32-.22-6.7.65-9.93.87-3.24,2.36-6.27,4.4-8.93,2.04-2.66,4.58-4.89,7.48-6.56"/>
          </g>
          <g class="cls-78">
            <path class="cls-23" d="M64.97,52.19c4.35-2.51,9.16-4.14,14.14-4.8,4.98-.66,10.05-.32,14.9.98,4.85,1.3,9.4,3.54,13.39,6.6,3.99,3.06,7.33,6.87,9.84,11.23s4.14,9.16,4.8,14.14.32,10.05-.98,14.9c-1.3,4.85-3.54,9.4-6.6,13.39-3.06,3.99-6.87,7.33-11.23,9.84s-9.16,4.14-14.14,4.8c-4.98.66-10.05.32-14.9-.98-4.85-1.3-9.4-3.54-13.39-6.6-3.99-3.06-7.33-6.87-9.84-11.23s-4.14-9.16-4.8-14.14c-.66-4.98-.32-10.05.98-14.9,1.3-4.85,3.54-9.4,6.6-13.39,3.06-3.99,6.87-7.33,11.23-9.84"/>
          </g>
          <g class="cls-79">
            <path class="cls-23" d="M58.59,41.15c5.8-3.35,12.21-5.52,18.85-6.4,6.64-.87,13.39-.43,19.87,1.3,6.47,1.73,12.54,4.73,17.86,8.81,5.32,4.08,9.78,9.17,13.13,14.97s5.52,12.21,6.4,18.85c.87,6.64.43,13.39-1.3,19.87-1.73,6.47-4.73,12.54-8.81,17.86s-9.17,9.78-14.97,13.13c-5.8,3.35-12.21,5.52-18.85,6.4-6.64.87-13.39.43-19.87-1.3-6.47-1.73-12.54-4.73-17.86-8.81-5.32-4.08-9.78-9.17-13.13-14.97s-5.52-12.21-6.4-18.85-.43-13.39,1.3-19.87c1.73-6.47,4.73-12.54,8.81-17.86,4.08-5.32,9.17-9.78,14.97-13.13"/>
          </g>
          <g class="cls-75">
            <path class="cls-4" d="M52.21,30.1c7.25-4.19,15.26-6.91,23.56-8,8.3-1.09,16.74-.54,24.83,1.63,8.09,2.17,15.67,5.91,22.32,11.01,6.64,5.1,12.22,11.46,16.41,18.71,4.19,7.25,6.91,15.26,8,23.56,1.09,8.3.54,16.74-1.63,24.83-2.17,8.09-5.91,15.67-11.01,22.32-5.1,6.64-11.46,12.22-18.71,16.41-7.25,4.19-15.26,6.91-23.56,8-8.3,1.09-16.74.54-24.83-1.63-8.09-2.17-15.67-5.91-22.32-11.01-6.64-5.1-12.22-11.46-16.41-18.71-4.19-7.25-6.91-15.26-8-23.56-1.09-8.3-.54-16.74,1.63-24.83,2.17-8.09,5.91-15.67,11.01-22.32,5.1-6.64,11.46-12.22,18.71-16.41"/>
          </g>
          <g class="cls-47">
            <g>
              <line class="cls-3" x1="60.53" y1="44.51" x2="62.01" y2="44.72"/>
              <line class="cls-24" x1="63.94" y1="45" x2="101.61" y2="50.41"/>
              <polyline class="cls-3" points="102.58 50.55 104.06 50.76 104.83 52.05"/>
              <line class="cls-15" x1="105.86" y1="53.78" x2="123.38" y2="83.18"/>
              <polyline class="cls-3" points="123.9 84.05 124.66 85.34 123.31 85.99"/>
              <polyline class="cls-7" points="121.58 86.83 92.95 100.67 73.69 106.69"/>
              <polyline class="cls-3" points="72.78 106.98 71.34 107.43 70.14 106.53"/>
              <line class="cls-26" x1="68.45" y1="105.26" x2="43.9" y2="86.87"/>
              <polyline class="cls-3" points="43.05 86.23 41.85 85.34 42.48 83.97"/>
              <line class="cls-16" x1="43.31" y1="82.16" x2="59.49" y2="46.78"/>
              <line class="cls-3" x1="59.9" y1="45.87" x2="60.53" y2="44.51"/>
            </g>
          </g>
          <g class="cls-49">
            <g>
              <line class="cls-20" x1="59.57" y1="42.85" x2="61.07" y2="42.83"/>
              <line class="cls-11" x1="63.05" y1="42.79" x2="106.61" y2="42.07"/>
              <polyline class="cls-20" points="107.6 42.06 109.1 42.03 109.19 43.53"/>
              <line class="cls-2" x1="109.3" y1="45.45" x2="111.46" y2="82.88"/>
              <polyline class="cls-20" points="111.51 83.84 111.6 85.34 110.44 86.29"/>
              <polyline class="cls-21" points="108.85 87.61 92.98 100.72 70.5 111.73"/>
              <polyline class="cls-20" points="69.57 112.18 68.22 112.84 68.97 111.54"/>
              <line class="cls-13" x1="70.03" y1="109.7" x2="82.82" y2="87.56"/>
              <polyline class="cls-20" points="83.35 86.63 84.1 85.34 83.35 84.04"/>
              <line class="cls-10" x1="82.37" y1="82.34" x2="60.81" y2="45"/>
              <line class="cls-20" x1="60.32" y1="44.15" x2="59.57" y2="42.85"/>
            </g>
          </g>
          <g class="cls-48">
            <polyline class="cls-22" points="55.86 36.43 109.59 41.19 142.1 85.34 107.54 125.93 61 125.35 33.01 85.34 55.86 36.43"/>
          </g>
          <path class="cls-5" d="M52.21,30.1c-7.25,4.19-13.61,9.76-18.71,16.41-5.1,6.64-8.84,14.23-11.01,22.32-2.17,8.09-2.72,16.53-1.63,24.83,1.09,8.3,3.81,16.31,8,23.56,4.19,7.25,9.76,13.61,16.41,18.71,6.64,5.1,14.23,8.84,22.32,11.01,8.09,2.17,16.53,2.72,24.83,1.63,8.3-1.09,16.31-3.81,23.56-8,7.25-4.19,13.61-9.76,18.71-16.41,5.1-6.64,8.84-14.23,11.01-22.32,2.17-8.09,2.72-16.53,1.63-24.83-1.09-8.3-3.81-16.31-8-23.56-4.19-7.25-9.76-13.61-16.41-18.71-6.64-5.1-14.23-8.84-22.32-11.01-8.09-2.17-16.53-2.72-24.83-1.63-8.3,1.09-16.31,3.81-23.56,8"/>
        </g>
        <text class="cls-30" transform="translate(62.35 54.01)"><tspan x="0" y="0">36</tspan></text>
        <text class="cls-30" transform="translate(99.84 120.29)"><tspan x="0" y="0">30</tspan></text>
        <text class="cls-30" transform="translate(119.69 87.15)"><tspan x="0" y="0">36</tspan></text>
        <text class="cls-30" transform="translate(100.35 54.01)"><tspan x="0" y="0">15</tspan></text>
        <text class="cls-30" transform="translate(61.94 120.29)"><tspan x="0" y="0">45</tspan></text>
        <text class="cls-30" transform="translate(43.1 87.15)"><tspan x="0" y="0">30</tspan></text>
        <g>
          <path class="cls-8" d="M81.27,149.05c-33.91-1.48-60.94-29.44-60.94-63.72s27.04-62.23,60.94-63.72"/>
          <path class="cls-25" d="M86.93,21.62c33.91,1.48,60.94,29.44,60.94,63.72s-27.04,62.23-60.94,63.72"/>
        </g>
        <text class="cls-30" transform="translate(51.44 34.29)"><tspan x="0" y="0">60</tspan></text>
        <text class="cls-30" transform="translate(141.96 87.15)"><tspan x="0" y="0">60</tspan></text>
        <text class="cls-30" transform="translate(111.36 34.29)"><tspan class="cls-127" x="0" y="0">2</tspan><tspan x="3.12" y="0">5</tspan></text>
        <text class="cls-30" transform="translate(21.12 87.15)"><tspan class="cls-130" x="0" y="0">5</tspan><tspan x="3.18" y="0">0</tspan></text>
        <text class="cls-30" transform="translate(111.7 140.05)"><tspan class="cls-130" x="0" y="0">5</tspan><tspan x="3.18" y="0">0</tspan></text>
        <text class="cls-30" transform="translate(50.1 140.05)"><tspan class="cls-119" x="0" y="0">7</tspan><tspan class="cls-91" x="2.76" y="0">5</tspan></text>
      </g>
      <text class="cls-29" transform="translate(13.6 28.38)"><tspan x="0" y="0">Tic</tspan><tspan class="cls-115" x="9.09" y="0">-</tspan><tspan class="cls-97" x="12.38" y="0">T</tspan><tspan class="cls-89" x="15.53" y="0">ac</tspan><tspan class="cls-115" x="23.84" y="0">-</tspan><tspan class="cls-97" x="27.13" y="0">T</tspan><tspan x="30.28" y="0">oe</tspan></text>
      <text class="cls-29" transform="translate(.92 83.25)"><tspan class="cls-109" x="0" y="0">K</tspan><tspan class="cls-92" x="3.92" y="0">uhn</tspan><tspan class="cls-116" x="-.92" y="8.4">P</tspan><tspan x="2.93" y="8.4">o</tspan><tspan class="cls-115" x="7.17" y="8.4">k</tspan><tspan class="cls-92" x="10.28" y="8.4">er</tspan></text>
      <text class="cls-29" transform="translate(34.28 146.52)"><tspan x="0" y="0">Mini</tspan><tspan x="-5.54" y="8.4">Hanabi</tspan></text>
      <text class="cls-29" transform="translate(117.03 146.52)"><tspan x="0" y="0">Simple</tspan><tspan x="-1.04" y="8.4">Hanabi</tspan></text>
      <text class="cls-29" transform="translate(153.58 83.25)"><tspan class="cls-102" x="0" y="0">L</tspan><tspan x="3.25" y="0">educ</tspan><tspan x="-3.24" y="8.4">Hold</tspan><tspan class="cls-99" x="11.66" y="8.4">’</tspan><tspan x="12.78" y="8.4">em</tspan></text>
      <text class="cls-29" transform="translate(115.99 28.38)"><tspan class="cls-126" x="0" y="0">C</tspan><tspan x="5.18" y="0">onnect Four</tspan></text>
      <text class="cls-31" transform="translate(47.21 8.5)"><tspan class="cls-114" x="0" y="0">S</tspan><tspan x="5.65" y="0">t</tspan><tspan class="cls-110" x="9.47" y="0">r</tspan><tspan x="12.66" y="0">a</tspan><tspan class="cls-101" x="18.96" y="0">t</tspan><tspan class="cls-132" x="22.53" y="0">e</tspan><tspan x="28.32" y="0">gic Abili</tspan><tspan class="cls-134" x="64.71" y="0">t</tspan><tspan x="68.58" y="0">y</tspan></text>
      <text class="cls-33" transform="translate(1.07 54.73)"><tspan class="cls-100" x="0" y="0">T</tspan><tspan class="cls-107" x="5.64" y="0">r</tspan><tspan x="9.18" y="0">ain</tspan></text>
      <text class="cls-33" transform="translate(140.51 54.73)"><tspan class="cls-98" x="0" y="0">T</tspan><tspan class="cls-107" x="5.4" y="0">es</tspan><tspan class="cls-95" x="17.63" y="0">t</tspan></text>
      <line class="cls-19" x1="179.19" y1="21.56" x2="179.19" y2="149.12"/>
      <g>
        <g>
          <line class="cls-6" x1="150.84" y1="10.22" x2="205.41" y2="10.22"/>
          <polygon class="cls-32" points="200.98 12.61 200.72 11.9 205.34 10.22 200.72 8.54 200.98 7.84 207.53 10.22 200.98 12.61"/>
        </g>
        <text class="cls-28" transform="translate(159.7 7.63)"><tspan x="0" y="0">Gene</tspan><tspan class="cls-121" x="20.12" y="0">r</tspan><tspan x="22.39" y="0">ali</tspan><tspan class="cls-117" x="30.78" y="0">z</tspan><tspan class="cls-94" x="34.3" y="0">e</tspan></text>
      </g>
    </g>
  </g>
</svg>